<?xml version="1.0" encoding="utf-8"?>
<!-- Generator: Adobe Illustrator 16.0.0, SVG Export Plug-In . SVG Version: 6.00 Build 0)  -->
<!DOCTYPE svg PUBLIC "-//W3C//DTD SVG 1.1//EN" "http://www.w3.org/Graphics/SVG/1.1/DTD/svg11.dtd">
<svg version="1.1" id="圖層_1" xmlns="http://www.w3.org/2000/svg" xmlns:xlink="http://www.w3.org/1999/xlink" x="0px" y="0px"
	 width="440px" height="140px" viewBox="0 0 440 140" enable-background="new 0 0 440 140" xml:space="preserve">
<path fill="#FFFFFF" d="M63.148,92.156c0,0-0.549,3.834-3.462,0.467c-2.912-3.368-1.586-10.105,1.897-12.552
	c3.476-2.446,6.698-1.865,7.886-0.546c1.18,1.312,1.837-4.666,7.365-1.687c5.535,2.978-0.248,3.043,5.877,4.398
	c6.125,1.356,8.004,3.039,8.208,6.936c0.204,3.904-2.856,2.081-0.822,2.329c2.034,0.247,3.537,11.905-1.422,13.847
	s-5.183,4.589-5.19,5.575c-0.007,0.993-2.164,5.83-9.174,1.362c-7.002-4.476-9.549-5.832-9.637-10.257
	c-0.08-4.425,1.025-0.374,3.788-0.669c0,0,1.684-0.165-0.575-1.343c-2.259-1.178-0.451-1.861,1.785-1.297
	c2.235,0.574,4.718-0.894,1.117-1.505c-3.602-0.604-5.93-0.044-2.741-2.662c3.19-2.624,2.995-3.937-0.04-2.211
	c-3.041,1.725-3.126,1.864-1.157-1.7c1.978-3.563-0.025-4.184-1.382-1.637C64.11,91.55,63.148,92.156,63.148,92.156"/>
<path fill="#FFFFFF" d="M51.361,112.779c0,0-2.838,5.621,0.385,10.766c3.216,5.145,0.594,10.097-4.233,9.532
	c-4.821-0.556-2.974,0.972-4.634,1.741c-1.668,0.776-4.695,1.508-6.536-2c-1.833-3.499-2.98,1.957-6.645-1.472
	c-3.673-3.43,0.089-8.29,0.354-8.724c0.263-0.436-3.758-3.282-0.896-8.299c2.854-5.006,7.9-2.525,10.376-3
	c2.475-0.481,3.407-0.707,1.088,2.453c-2.319,3.152-1.125,2.492,1.8,0.302c2.926-2.19,0.397,1.63-1.419,3.307
	c-1.815,1.67,0.49,4.075,2.15-0.279c1.666-4.348,2.419-4.286,1.707-2.136c-0.713,2.142,0.537,5.294,1.948,0.395
	C48.209,110.46,53.268,106.39,51.361,112.779"/>
<path fill="#FFFFFF" d="M64.301,109.152c0,0,3.114,3.685,6.895,4.01c3.779,0.316,7.242,3.429,9.029,5.709
	c1.786,2.28,2.96,9.157-3.667,11.869c-6.619,2.711-6.838,0.786-8.14,3.574c-1.303,2.779-3.166,3.238-5.627,1.733
	c-2.461-1.506-1.625-5.161-4.97-4.229c-3.352,0.933-2.966-4.586-0.904-8.297c0,0-3.655-0.837-4.604-5.788
	c-0.949-4.951,5.42-12.794,5.328-9.068c0,0-2.933,3.177-0.611,4.595c2.314,1.412,2.119-3.478,2.119-3.478s1.601,7.14,1.825,4.492
	c0.225-2.646-1.213-4.517,1.218-2.639c2.423,1.877,2.197,0.946,0.302-1.802C60.59,107.09,61.475,105.645,64.301,109.152"/>
<path fill="#FFFFFF" d="M55.163,86.686c0,0,0.331-5.759,6.593-10.481c6.262-4.721,1.316-9.322-2.611-8.746
	c0,0-1.25-0.559-1.073-4.432c0.176-3.866-5.606-4.81-8.336-1.309c0,0-5.086-4.693-7.359-0.315c-2.272,4.371-2.775,9.432-2.06,10.859
	c0.714,1.437-2.416-2.87-4.673-0.471c-2.266,2.399-2.288,5.364,0.174,6.87c2.46,1.497,3.688,5.028,3.472,6.688
	c-0.217,1.654,6.57,8.769,11.466,6.601c0,0,1.374-0.956-1.731-2.056c-3.098-1.094-3.479-4.703-1.454-3.469s2.29,0.806,0.939-1.212
	c-1.351-2.017,0.021-2.972,1.606-1.009c1.584,1.963,0.495-4.068,2.631-1.375c2.136,2.692-1.092,5.689,1.027,6.784
	C55.886,90.708,55.163,86.686,55.163,86.686"/>
<path fill="#FFFFFF" d="M53.132,97.172c0,0,4.43-4.652,7.979-0.695c3.541,3.95-1.354,9.704-8.083,10.963
	c-6.729,1.261-16.416,1.506-20.374,1.476c-3.958-0.029-9.4,0.423-9.4,0.423s-3.498,5.412-0.935,8.368c0,0,2.289-1.785,2.531,0.744
	c0.241,2.538-2.7,3.129-4.191,0.032c-1.492-3.097-1.438-6.441,0.415-9.477l-5.735,1.26c0,0-3.057,4.689,0.001,3.578
	c0,0,2.072-1.119,2.383,0.659c0.303,1.777-0.558,4.827-4.145,1.251c-3.572-3.577-0.095-6.023-0.095-6.023s-2.951-2.002-3.015-5.813
	c-0.055-3.811,7.264-2.13,1.972,1.008c0,0,0.614,3.556,3.347,3.632c2.732,0.076,5.007-0.724,5.007-0.724s-5.744-1.317-5.91-6.588
	c-0.165-5.262,6.27-2.129,2.266,0.193c0,0,0.135,5.643,10.14,5.196c10.012-0.446,14.778-0.123,20.039-3.866
	C52.598,99.027,53.132,97.172,53.132,97.172"/>
<path fill="#FFFFFF" d="M48.64,95.422c0,0-8.104-1.371-10.893-6.251c-2.78-4.874-2.858-6.713-2.751-8.832
	c0.101-2.119-3.292-3.398-5.186-2.567c-1.901,0.831-3.803,2.648-3.421,5.263c0.389,2.624-3.702,1.515-5.713,1.881
	c-2.009,0.357-1.924,1.204-2.289,2.772c-0.364,1.568-0.028,3.958,2.378,5.229c2.399,1.266-1.629,0.39,1.515,3.702
	c3.138,3.313,1.175,5.884,9.077,6.936c7.91,1.044,9.477,0.415,12.605-1.449c3.127-1.872-6.808,0.415-2.694-1.443
	c4.121-1.864,2.832-1.056-0.396-1.637c-3.222-0.574-8.229-3.436-2.796-2.902c5.434,0.533,10.379,4.148,2.127-0.886
	c-8.253-5.034-0.708-2.421,2.708-0.529C46.335,96.595,48.64,95.422,48.64,95.422"/>
<path fill="#FFFFFF" d="M388.795,98.444c0,0-3.146-3.81,2.528-3.673c5.681,0.146,10.9,7.182,10.22,12.57
	c-0.682,5.379-3.993,7.927-6.253,7.912c-2.259-0.015,4.498,6.121-3.063,8.787c-7.559,2.666-4.333-3.235-10.866,1.378
	c-6.54,4.622-7.699-0.897-11.559-4.055c-3.858-3.156-3.539-0.541-5.525,1.167c-1.979,1.701-12.272-4.978-9.847-11.32
	c2.419-6.35,0.12-8.833-0.812-9.686c-0.925-0.853-3.635-7.045,6.594-9.821c10.236-2.768,13.713-4.011,17.953-0.295
	c4.247,3.716-0.527,1.29-2.615,4.145c0,0-1.303,1.732,1.756,0.621c3.058-1.127,2.15,1.171-0.311,2.795
	c-2.459,1.615-3.203,5.218,0.459,2.344c3.67-2.881,5.145-5.56,4.875-0.296c-0.263,5.262,1.144,6.201,2.119,1.854
	c0.984-4.348,0.923-4.549,2.593,0.371c1.672,4.921,3.976,3.568,2.732,0.1S388.795,98.444,388.795,98.444"/>
<path fill="#FFFFFF" d="M379.449,69.616c0,0-2.867-7.496-10.489-8.875c-7.614-1.378-10.039-8.115-5.368-12.184
	c4.671-4.069,1.644-3.633,2.341-5.869c0.698-2.236,2.605-5.722,7.488-4.451c4.89,1.279,0.713-4.494,7.101-5.009
	s7.748,7.2,7.928,7.82c0.186,0.629,6.325-0.724,8.602,6.275c2.277,7.001-4.396,9.635-6.071,12.375
	c-1.676,2.749-2.265,3.82-3.245-1.077c-0.98-4.898-1.391-3.198-1.831,1.436c-0.448,4.643-1.879-1.023-1.904-4.174
	c-0.017-3.151-4.27-3.033-1.59,2.267c2.681,5.309,1.967,5.968,0.562,3.446c-1.415-2.514-5.467-4.034-2.05,1.5
	C384.346,68.629,383.838,76.895,379.449,69.616"/>
<path fill="#FFFFFF" d="M364.535,65.641c0,0,3.934-2.733,9.432,0.625c5.481,3.351,7.41,16.087,3.971,12.814
	c0,0-0.483-5.496-3.805-4.524c-3.322,0.971,1.46,4.982,1.46,4.982s-8.112-4.616-5.806-2.132c2.299,2.482,5.303,2.729,1.444,3.407
	c-3.856,0.685-2.785,1.266,1.438,1.832c4.224,0.571,4.836,2.645-0.907,2.297c0,0-6.147-0.223-9.693,3.069
	c-1.35,1.251-3.042,2.113-4.819,2.68c-2.902,0.94-2.696-8.326-2.696-8.326"/>
<path fill="#FFFFFF" d="M400.811,95.604c0,0,5.149,5.253,4.229,15.219c-0.912,9.959,7.673,9.25,10.496,5.041
	c0,0,1.605-0.69,5.101,2.793c3.502,3.482,9.36-1.161,8.395-6.741c0,0,8.795-0.771,6.619-6.67
	c-2.177-5.906-6.517-10.716-8.488-11.267c-1.964-0.558,4.789,0.176,4.46-4.015c-0.319-4.191-3.099-6.759-6.63-5.726
	c-3.531,1.034-7.91-0.843-9.292-2.463c-1.375-1.63-13.918-1.337-16.073,5.16c0,0-0.285,2.111,3.415,0.122
	c3.702-1.98,7.437,0.758,4.534,1.605c-2.909,0.855-2.73,1.476,0.335,1.932c3.065,0.457,2.787,2.568-0.426,2.375
	c-3.214-0.185,3.408,3.965-0.961,3.664c-4.37-0.301-4.435-5.913-7.283-4.856C396.394,92.835,400.811,95.604,400.811,95.604"/>
<path fill="#FFFFFF" d="M392.658,84.686c0,0,0.586,8.173-6.19,8.129c-6.776-0.051-7.998-9.614-3.405-17.043
	c4.583-7.43,12.667-16.786,16.088-20.49c3.429-3.712,7.673-9.239,7.673-9.239s-2.106-7.948-7.098-8.07c0,0-0.278,3.695-2.872,1.748
	c-2.601-1.947-0.63-5.223,3.569-3.975c4.2,1.248,7.313,4.173,8.589,8.535l3.729-6.507c0,0-1.795-6.915-3.377-3.064
	c0,0-0.721,2.911-2.661,1.678c-1.941-1.234-4.077-4.672,2.373-4.976c6.441-0.313,5.77,5.073,5.77,5.073s4.423-1.073,8.065,2.147
	c3.648,3.22-4.22,8.679-2.632,0.994c0,0-3.89-2.474-6.303,0.041c-2.429,2.517-3.622,5.351-3.622,5.351s6.184-4.295,11.292,0.073
	c5.111,4.367-3.364,7.747-2.125,1.972c0,0-5.442-4.716-13.611,5.113c-8.169,9.829-12.568,14.054-13.559,22.228
	C391.361,82.584,392.658,84.686,392.658,84.686"/>
<path fill="#FFFFFF" d="M398.167,81.947c0,0,8.248-6.477,15.25-4.912c6.993,1.558,8.787,3.063,10.697,4.979
	c1.918,1.924,6.03-0.182,6.875-2.688c0.846-2.5,0.767-5.861-2.036-7.747c-2.803-1.884,1.752-4.797,3.134-7.002
	c1.379-2.204,0.518-2.856-0.654-4.54c-1.166-1.691-3.704-3.429-6.973-2.247c-3.259,1.181,1.032-1.88-4.797-1.753
	c-5.821,0.127-6.561-3.94-14.334,2.622c-7.775,6.562-8.534,8.589-9.457,13.137c-0.922,4.556,5.454-6.778,3.679-1.297
	c-1.775,5.48-1.435,3.579,1.879,1.023c3.313-2.547,10.313-4.825,5.139-0.15c-5.168,4.667-12.828,6.238-0.992,2.771
	c11.835-3.466,2.896,1.404-1.824,3.013C399.035,78.765,398.167,81.947,398.167,81.947"/>
<path fill="#FFFFFF" d="M335.413,118.021c0.226-0.008,0.45-0.016,0.675-0.016C335.894,117.952,335.661,117.975,335.413,118.021
	 M331.508,118.008c-1.475-0.146-2.732-0.798-4.184-0.789c-1.476,0.008-3.174,0.232-4.634,0.009
	c-1.219-0.194-2.749-1.917-3.005-3.127c-0.73-0.054-1.079-0.83-1.585-1.311c-0.458-0.419-0.737-0.481-1.265-0.783
	c-1.056-0.599-1.934-1.312-2.873-2.041c-0.839-0.651-1.6-1.372-2.453-2.078c-0.257-0.226-0.513-0.668-0.831-0.963
	c-0.451-0.419-0.955-0.938-0.933-1.591l-0.745-0.264c-0.713,0.249,0.164,1.677,0.443,2.127c0.156,0.256,0.419,0.466,0.551,0.737
	c0.181,0.364,0.094,0.682,0.233,1.001c0.49,1.188,1.53,2.018,2.222,3.204c1.562,2.701,3.781,4.338,6.234,6.084
	c1.328,0.938,2.369,0.813,4.014,0.812h4.627c1.606-0.001,3.174,0.06,4.711-0.268c0.676-0.14,1.421-0.311,2.095-0.435
	c0.358-0.07,0.839-0.234,1.281-0.312C334.117,118.045,332.79,118.132,331.508,118.008 M262.902,5.499h-0.133
	c0.048,0,0.094,0.008,0.147,0.008C262.909,5.507,262.909,5.499,262.902,5.499 M269.5,8.096c1.155,0.108,2.748,1.016,3.703,1.722
	c0.939,0.69,2.073,1.458,2.818,2.319c0.465,0.535,0.753,1.202,1.196,1.77c0.644,0.837,1.46,1.544,2.112,2.359
	c0.869,1.085,0.894,3.143,1.438,4.438c0.427,1.009,1.002,2.157,1.584,3.035c0.622,0.923,1.134,2.204,1.896,3.019
	c0.047-1.436-0.257-2.958-0.258-4.439c-0.001-1.615,0.022-2.655-0.777-4.076c-1.353-2.428-3.17-4.818-5.064-6.844
	c-0.993-1.055-1.887-2.025-3.052-2.862c-0.552-0.387-1.001-1.023-1.646-1.218c-0.605-0.186-1.468,0.07-2.104,0.016
	c-1.25-0.108-2.406-0.355-3.609-0.503c-0.637-0.077-1.118-0.255-1.747-0.449c-0.854-0.271-2.049-0.751-3.074-0.875
	C263.896,7.687,267.537,7.918,269.5,8.096 M191.647,107.983c-0.528,0-1.312,0.165-1.816,0.024c-0.785-0.224-1.561-0.806-2.383-1.062
	c-1.11-0.35-2.453-0.387-3.594-0.527c-0.573-0.069-1.242,0.18-1.785-0.03c-0.442-0.178-0.847-0.783-1.266-1
	c-1.141-0.605-2.368-0.713-3.463-1.38c-0.535-0.326-1.041-0.418-1.552-0.683c-0.396-0.202-0.629-0.636-1.017-0.792
	c-0.652-0.263-1.397-0.146-2.104-0.503c-0.582-0.287-1.102-0.667-1.576-0.977c-0.846-0.559-1.53-1.07-2.609-1.094l0.249,0.52
	c-0.101,0.723,1.654,1.933,2.182,2.352c0.838,0.667,1.67,1.25,2.408,2.018c0.877,0.907,1.948,1.644,2.733,2.622
	c0.909,1.14,1.529,1.784,3.105,1.815c2.662,0.052,5.332-0.003,8.002-0.003c1.538-0.002,3.245,0.253,4.759,0.013
	c1.195-0.187,2.18-0.894,3.29-1.321C194.022,108.022,192.826,107.983,191.647,107.983 M187.051,86.618l-14.828-25.204L158.457,86.63
	l-13.242,0.005l19.514-35.619l-18.806,0.008l-0.003-6.288l20.25-0.008l-0.005-11.666l11.915-0.005l0.005,11.666l20.615-0.008
	l0.002,6.287l-20.616,0.008l-1.992,3.51l5.503-0.002l18.448,32.095L187.051,86.618z M205.474,60.911
	c-2.526-7.496,0.126-15.656-2.059-23.176c-1.206-4.128-2.224-7.497-5.942-10.111c-1.46-1.032-3.043-1.831-4.209-3.281
	c-1.079-1.335-1.351-2.072-2.919-2.941c-2.089-1.164-4.191-1.062-6.381-1.736c-2.398-0.744-4.557-2.155-6.941-2.93
	c-3.462-1.125-9.035-0.982-12.643-0.36c-4.122,0.708-8.063,3.427-11.603,5.407c-2.413,1.359-4.158,1.889-5.944,4.109
	c-1.288,1.6-2.04,3.207-2.908,5.015c-0.698,1.452-1.636,2.508-1.854,4.176c-0.147,1.172,0.303,2.375-0.053,3.547
	c-0.612,2.05-0.938,3.276-0.937,5.534c0.009,1.855,0.133,3.756,0.018,5.604c-0.055,0.947-0.039,1.895-0.372,2.818
	c-0.403,1.118-0.721,1.056-1.171,1.949c-0.426,0.83-1.187,2.057-1.434,2.927c-0.187,0.637,0.093,1.381-0.202,1.979
	c-0.396,0.8-1.504,1.306-2.087,1.965c-1.637,1.856-1.155,4.083-2.256,6.249c-1.559,3.052-1.868,5.481-0.85,8.856
	c0.941,3.151,2.346,6.046,4.777,8.211c4.177,3.716,8.757,4.505,13.733,6.777c2.857,1.318,5.302,1.147,8.477,1.146l-8.374,1.54
	c2.631-0.001,5.262,0.021,7.885-0.003c0.699,0,1.747-0.233,2.399-0.055c0.962,0.271,1.552,1.257,2.632,1.505
	c1.543,0.355,2.048,0.091,3.477,0.953c0.877,0.535,1.288,1.141,2.058,1.707c2.919,2.148,6.576,3.985,9.937,5.39
	c2.019,0.837,4.712,1.985,6.839,2.303c1.995,0.294,4.346,0.005,6.356-0.018c3.268-0.033,6.582-1.672,9.484-3.179
	c2.289-1.188,4.369-2.509,6.371-4.055c3.368-2.594,5.005-6.25,5.126-10.682c0.16-5.542-0.943-9.74-3.251-14.7
	C208.808,69.385,206.888,65.116,205.474,60.911 M60.878,20.781h-1.342C60.072,20.781,60.521,20.858,60.878,20.781 M64.425,19.344
	c0.544-0.264,1.048-0.521,1.552-0.847c0.108-0.071,0.396-0.303,0.536-0.396c1.281-0.451,2.568-0.901,3.857-1.345
	c3.71-1.25,7.419-2.517,11.121-3.792c0.14,0.007,1.443-0.093,1.8-0.218c0.598-0.209,1.304-0.567,1.824-0.924
	c1.21-0.846,2.281-2.143,3.646-2.765c0.49-0.218,1.313-0.163,1.855-0.241c0.737-0.117,1.366-0.412,2.025-0.823
	c0.675-0.428,1.249-0.971,1.885-1.414c0.218-0.147,0.265-0.365,0.521-0.474c0.435-0.187,0.862,0.178,1.272-0.194
	c-0.869-0.287-1.815,0.318-2.654,0.482c-0.9,0.171-1.778,0.249-2.67,0.529c-0.97,0.318-1.792,0.233-2.817,0.272
	c-0.986,0.04-1.917,0.351-2.88,0.483c-0.822,0.101-1.847-0.046-2.608,0.366c-0.783,0.419-1.753,1.072-2.482,1.624
	c-1.739,1.312-3.258,3.167-5.184,4.232c-0.69,0.388-1.42,0.326-2.166,0.544c-0.706,0.21-1.428,0.428-2.149,0.514
	c-0.784,0.085-1.521,0.078-2.267,0.248c-0.768,0.179-1.172,0.505-1.816,0.801c-0.698,0.325-1.482,0.466-2.203,0.807
	c-0.629,0.295-2.484,0.598-2.833,1.188c-0.31,0.521,0.117,1.452-0.038,2.026c-0.131,0.497-0.364,0.683-0.675,0.753l1.716-0.001
	C62.935,20.051,63.742,19.67,64.425,19.344 M268.863,78.465l-6.056-17.95l10.945-0.005l6.232,17.951L268.863,78.465z
	 M262.387,58.458l5.678-11.312l11.301-0.005l-5.676,11.311L262.387,58.458z M261.364,78.53l-14.452,0.005l-2.539-5.679L250,72.853
	l-0.009-20.01l-7.134,0.003l-3.024,3.447l9.127-0.003l-8.153,9.488l8.763-0.003L238.933,78.54l-12.691,0.005l10.031-11.794
	l-9.376,0.004l8.402-9.861l-9.19,0.003l10.272-12.088l-5.683,0.001l-0.002-3.508l-4.292,0.001l-0.005-11.79l20.739-0.008
	l-1.639-4.168l12.093-0.005l1.756,4.167l19.591-0.009l0.005,11.791l-4.053,0.002l0.002,3.508l-24.969,0.011l-2.119,2.414
	l13.545-0.006L261.364,78.53z M280.328,24.119c-0.901-1.614-1.896-2.964-2.991-4.438c-1.01-1.35-1.546-3.104-2.664-4.361
	c-1.785-2.009-4.782-3.414-7.065-4.732c-2.826-1.637-5.403-3.591-8.06-5.43c-3.881-2.692-9.369-3.496-14.072-2.858
	c-3.843,0.521-7.551,2.347-11.261,3.513c-2.134,0.676-3.795,1.911-5.906,2.626c-2.111,0.715-3.965,1.686-5.727,3.06
	c-4.058,3.145-6.677,8.455-8.258,13.105c-1.187,3.485-0.509,7.614-0.112,11.216c0.42,3.78,0.383,7.428,2.106,10.873
	c0.716,1.436,1.569,3.166,2.596,4.454c0.642,0.815,1.365,0.845,1.722,2.072c0.863,2.911-0.432,6.443-1.059,9.229
	c-0.705,3.136-1.037,6.14-1.027,9.369l-0.527-15.997c0.208-1.289-1.902-1.683-2.546-0.845c-0.17,0.21,0.553,3.098,0.49,3.68
	c-0.347,3.282-1.061,6.124-1.059,9.414c0.001,3.377,0.516,6.948,1.93,10.098c0.876,1.963,2.74,5.618,4.425,6.907
	c2.251,1.729,4.487,3.801,7.019,4.763c2.282,0.876,4.96,1.232,7.319,2.186c2.043,0.813,4.255,1.806,6.211,2.698
	c1.328,0.605,2.422,1.257,3.835,1.489c1.91,0.326,4.883,0.232,6.846,0.029c1.584-0.164,2.903-0.91,4.463-1.174
	c1.816-0.311,3.935-0.133,5.806-0.352c3.407-0.404,6.295-1.446,9.491-2.573c10.656-3.776,14.261-13.829,14.256-24.067l-0.006-17.162
	c-0.003-4.889,0.391-10.021-1.109-14.715C284.141,32.306,282.323,27.673,280.328,24.119 M267.331,35.178l-29.2,0.012l0.002,3.749
	l29.199-0.012L267.331,35.178z M315.498,85.811l-0.729,2.725l2.539-0.002l-0.01-22.306l-1.808,0L315.498,85.811z M296.995,88.295
	l-0.342-19.552c0.102,0.404,0.219,0.807,0.342,1.227C298.744,75.611,296.993,82.466,296.995,88.295 M366.391,47.695
	c-0.815-3.493-1.361-7.04-3.683-9.747c-1.484-1.722-3.153-2.77-4.706-4.36c-1.661-1.699-3.231-3.577-5.017-5.144
	c-2.718-2.39-6.443-3.863-9.991-5.166c-1.343-0.505-2.718-1.684-4.075-1.939c-0.939-0.17-1.871,0.233-2.834,0.017
	c-1.412-0.303-2.46-1.311-3.974-1.535c-0.986-0.147-1.933-0.109-2.942-0.302c-3.555-0.697-7.453-2.123-11.186-0.904
	c-1.714,0.552-3.157,1.748-4.733,2.463c-0.651,0.304-1.404,0.148-2.01,0.552c-0.761,0.521-1.257,1.801-2.01,2.4
	c-1.007,0.792-2.303,1.257-3.134,2.407c-0.985,1.358-1.861,3.074-2.854,4.534c-2.336,3.417-3.785,7.236-3.845,11.504
	c-0.038,3.237,0.305,6.621-0.09,9.834c-0.355,2.919-2.109,4.993-2.806,7.764l-0.016-0.814c-0.917,0.636-2.211,2.988-2.537,4.409
	c-0.342,1.498-0.247,1.8-0.86,3.182c-0.45,1.025-0.543,2.026-0.619,3.121c-0.093,1.211,0.163,2.477,0.04,3.687
	c-0.117,1.08-0.721,2.143-0.892,3.137c-0.395,2.367-0.626,6.132-0.02,8.422c0.428,1.606,1.841,4.082,2.843,5.082
	c1.615,1.606,4.131,2.684,5.925,4.019c3.694,2.769,6.911,6.276,10.513,9.177c1.172,0.946,2.431,1.512,3.54,2.59
	c1.165,1.11,2.02,2.692,3.107,3.749c1.002,0.969,3.237,2.311,4.51,2.986c0.598,0.419,1.25,0.598,1.964,0.55
	c0.529,0.016,0.831,0.318,0.909,0.884c1.987,0.932,4.696,0.604,7.148,0.603c1.397,0,3.586,0.48,4.906-0.063
	c1.303-0.535,1.985-1.165,3.422-1.531c5.774-1.438,10.109-8.813,12.179-14.231c0.598-1.577,1.194-3.082,1.77-4.589l-7.157,0.002
	l-3.993-8.938l-5.438,8.943l-21.158,0.009l-2.121-4.896l-1.388,4.897l-10.036,0.004l2.535-9.129l-0.015-32.522l-1.932,0.001
	l-0.004-5.868l5.62-0.002l-1.508-6.045l11.79-0.005l1.57,6.046l5.324-0.002l0.004,5.868l-10.944,0.004l0.002,7.374l10.696-0.004
	l0.002,4.897l3.265-8.105l-4.169,0.002l6.04-16.085l10.036-0.004l-1.512,4.238l17.589-0.006l0.002,5.798l-19.77,0.008l-0.846,2.243
	h3.145l-1.505,4.167l17.473-0.006l0.002,5.922l-7.194,0.003l0.002,7.801l8.764-0.003l0.002,5.921l-8.94,0.004l-1.575,2.422
	l4.657-0.001l4.482,10.05c1.024-2.616,2.661-4.821,4.104-7.229c4.227-6.995,6.631-13.135,6.635-21.626
	C366.87,56.364,367.347,51.784,366.391,47.695 M334.166,68.759l-7.979,0.003l0.011,25.085l10.518-16.871l-9.313,0.004l-0.002-5.86
	l10.579-0.004l-0.004-7.864l-1.754,0.001L334.166,68.759z M79.11,55.329l7.739-0.003l-0.001-4.231l-7.739,0.004L79.11,55.329z
	 M107.651,77.383L94.107,77.39l2.359-3.324l-29.315,3.218l-0.003-5.503l15.469-1.699l2.355-7.676l10.401-0.005l-1.875,6.404
	l4.541-0.421l0.001,3.501l9.666-12.695l13.481-0.006L107.651,77.383z M67.184,28.307l10.099-0.004l-0.002-4.284l11.123-0.005
	l0.002,4.284l10.098-0.004l0.002,5.504l-10.099,0.004l0.003,4.354l8.406-0.003l0.001,5.379l-28.052,0.012l-0.001-5.379l8.522-0.003
	l-0.002-4.354L67.187,33.81L67.184,28.307z M108.056,24.005l12.209-0.004l-10.572,15.9L97.6,39.906L108.056,24.005z M82.073,68.997
	l-10.277,0.004l-2.06-6.59L80.2,62.406L82.073,68.997z M69.014,60.72l-0.007-14.996l27.989-0.011l0.005,11.123l11.178-15.661
	l12.636-0.005l-12.024,16.809l-11.789,0.005l0.001,2.724L69.014,60.72z M133.148,55.445c2.775-7.343,4.006-15.338,3.351-23.232
	c-0.475-5.681-5.019-11.741-9.74-14.86c-3.121-2.063-6.079-4.437-9.526-6.003c-1.987-0.899-3.921-1.458-5.962-2.069
	c-1.716-0.52-3.369-1.303-5.232-1.535c-9.757-1.2-17.276,4.493-26.209,6.966c-4.447,1.235-8.249,2.014-12.161,4.491
	c-3.383,2.137-7.395,3.582-10.515,6.145c-5.594,4.59-4.387,13.888-4.385,20.399c0.005,8.856-0.078,17.123,2.564,25.589
	c0.87,2.779,2.913,6.107,5.405,7.635c0.28,0.171,2.423,0.822,2.78,0.954c1.304,0.481,2.483,0.566,3.795,1.038
	c1.63,0.59,3.136,1.482,4.558,2.381l-1.623-1.102c1.824,0,3.679-0.103,5.496-0.002c1.886,0.101,2.935,0.938,4.789,1.1
	c4.091,0.355,5.031,2.924,6.678,6.238c1.748,3.515,3.387,6.192,6.795,8.007c2.151,1.147,3.261,2.25,5,3.863
	c1.6,1.482,3.168,1.629,5.403,1.62c4.875-0.018,9.159-0.827,11.991-5.221c1.783-2.78,3.475-5.303,4.715-8.307
	c0.853-2.073,1.225-4.208,1.922-6.35c0.761-2.353,1.356-4.83,2.295-7.041c1.085-2.586,1.697-5.458,3-7.981
	c0.961-1.871,1.76-2.889,2.295-4.984C131.318,60.538,132.202,57.954,133.148,55.445"/>
<path fill="#E60012" d="M116.026,119.788c0.208-4.238,3.544-7.515,7.44-7.322c3.26,0.162,5.884,2.698,6.539,5.997
	c0.992-3.19,3.839-5.42,7.084-5.267c3.896,0.193,6.886,3.785,6.678,8.024c-0.146,2.887-1.744,5.333-3.986,6.536
	c-1.839,1.251-2.941,1.352-5.967,3.526c-3.889,2.78-4.664,4.799-4.664,4.799c-0.537-1.313-2.656-4.47-5.933-6.501
	c-3.268-2.041-5.124-3.934-5.124-3.934l0.023-0.008C116.728,124.165,115.912,122.071,116.026,119.788"/>
<path d="M339.235,129.005c0.162,0.264,0.241,0.783,0.241,1.552c0,1.894-0.566,2.842-1.691,2.842c-0.535,0-0.962-0.209-1.289-0.621
	c-0.325-0.411-0.489-0.954-0.489-1.63c0-0.697,0.232-1.303,0.69-1.808c0.457-0.506,0.992-0.754,1.614-0.754
	C338.761,128.601,339.071,128.741,339.235,129.005 M331.732,118.443c-0.931,0.506-1.668,1.095-2.211,1.771
	c-0.543,0.668-0.814,1.343-0.814,2.01c0,0.661,0.227,1.188,0.661,1.599c0.435,0.404,1.001,0.605,1.692,0.605
	c1.365-0.001,2.677-0.886,3.933-2.664c0.489-0.676,0.9-1.135,1.234-1.39c0.325-0.249,0.707-0.381,1.133-0.381
	c0.699,0,1.211,0.333,1.522,1c0.311,0.668,0.467,1.739,0.467,3.222c0,0.59-0.107,0.963-0.318,1.125
	c-0.209,0.163-0.729,0.241-1.544,0.242c-3.679,0.017-6.442,0.902-8.289,2.674c-1.187,1.118-1.775,2.406-1.775,3.856
	c0.001,0.916,0.219,1.786,0.661,2.616c0.436,0.839,1.025,1.513,1.777,2.025c1.143,0.783,2.633,1.179,4.48,1.179
	c1.792-0.001,3.392-0.516,4.795-1.539c0.466-0.35,0.839-0.521,1.126-0.521c0.248,0,0.527,0.179,0.823,0.543
	c0.86,1.009,2.034,1.513,3.508,1.512c1.157,0,2.267-0.311,3.322-0.925c0.861-0.489,1.56-1.102,2.104-1.824
	c0.542-0.73,0.813-1.429,0.813-2.104c0-0.521-0.226-0.814-0.676-0.885c-0.449-0.069-0.753-0.147-0.893-0.224
	c-0.14-0.086-0.287-0.279-0.442-0.591c-0.313-0.644-0.467-2.049-0.468-4.222l0.045-3.128c-0.001-1.482-0.188-2.646-0.544-3.501
	c-0.358-0.846-0.987-1.597-1.896-2.249c-1.699-1.234-3.78-1.854-6.232-1.853C336.947,116.424,334.285,117.1,331.732,118.443
	 M311.807,136.926c0.613,0.636,1.173,0.953,1.686,0.953c1.179-0.001,2.546-1.483,4.096-4.456l5.282-10.162
	c0.48-0.94,0.892-1.593,1.225-1.958c0.342-0.364,0.769-0.644,1.289-0.838c0.915-0.326,1.413-0.521,1.482-0.591
	c0.396-0.303,0.59-0.683,0.589-1.133c0-0.451-0.163-0.846-0.506-1.188c-0.341-0.341-0.775-0.566-1.311-0.682
	c-0.932-0.179-1.995-0.271-3.19-0.271c-1.778,0-3.128,0.203-4.06,0.615c-0.667,0.28-0.993,0.783-0.993,1.506
	c0,0.466,0.156,0.892,0.482,1.28c0.45,0.566,0.676,0.978,0.676,1.241c0,0.333-0.279,1.018-0.837,2.034
	c-0.776,1.359-1.421,2.043-1.924,2.043c-0.467,0-0.987-0.535-1.547-1.599c-0.651-1.219-0.972-2.011-0.972-2.391
	c0-0.264,0.07-0.48,0.226-0.651c0.497-0.506,0.8-0.855,0.908-1.049c0.116-0.201,0.171-0.458,0.171-0.777
	c0-0.798-0.475-1.38-1.414-1.736c-0.947-0.357-2.483-0.536-4.611-0.535c-1.848,0.001-3.453,0.111-4.819,0.321
	c-2.258,0.335-3.385,1.049-3.384,2.144c0,0.465,0.241,0.861,0.722,1.194c0.786,0.56,1.29,0.971,1.5,1.227
	c0.209,0.265,0.317,0.605,0.317,1.04c0.001,0.435-0.239,1.002-0.719,1.708c-0.475,0.699-0.87,1.048-1.18,1.048
	c-0.537,0.001-1.174-0.69-1.903-2.079c-0.668-1.218-0.994-1.979-0.994-2.289c0-0.14,0.038-0.272,0.123-0.396
	c0.436-0.638,0.652-1.104,0.652-1.414c-0.001-1.66-2.244-2.498-6.746-2.495c-2.003,0-3.842,0.211-5.535,0.638
	c-1.684,0.436-2.521,1.189-2.521,2.268c0,0.35,0.108,0.668,0.311,0.954c0.202,0.287,0.458,0.481,0.769,0.575
	c0.753,0.209,1.265,0.426,1.544,0.65c0.591,0.52,1.422,1.621,2.479,3.321l6.346,10.476c0.513,0.854,0.979,1.459,1.422,1.815
	c0.434,0.357,0.916,0.536,1.436,0.535c0.846,0,1.607-0.582,2.28-1.747l3.529-6.049c0.535-0.923,1.056-1.389,1.567-1.389
	c0.233,0,0.427,0.077,0.583,0.231c0.147,0.155,0.474,0.621,0.979,1.405l2.183,3.469
	C310.425,135.226,311.195,136.289,311.807,136.926 M272.771,129.032c0.162,0.264,0.241,0.783,0.241,1.552
	c0.001,1.895-0.565,2.842-1.691,2.842c-0.536,0.001-0.962-0.208-1.289-0.619c-0.326-0.412-0.489-0.955-0.489-1.631
	c0-0.698,0.232-1.305,0.69-1.808c0.457-0.506,0.993-0.754,1.612-0.755C272.296,128.629,272.607,128.769,272.771,129.032
	 M265.268,118.472c-0.932,0.505-1.668,1.095-2.211,1.771c-0.544,0.667-0.807,1.344-0.807,2.011c0.001,0.659,0.218,1.188,0.652,1.6
	c0.435,0.402,1.002,0.604,1.693,0.604c1.365-0.001,2.676-0.885,3.934-2.663c0.488-0.677,0.899-1.134,1.233-1.391
	c0.333-0.248,0.706-0.38,1.133-0.38c0.707-0.001,1.211,0.332,1.522,1c0.311,0.667,0.466,1.737,0.466,3.221
	c0.001,0.59-0.107,0.962-0.317,1.126c-0.209,0.163-0.729,0.24-1.544,0.24c-3.68,0.018-6.442,0.904-8.289,2.674
	c-1.179,1.119-1.775,2.407-1.774,3.859c0,0.915,0.217,1.785,0.66,2.615c0.435,0.838,1.024,1.513,1.777,2.024
	c1.142,0.784,2.633,1.179,4.48,1.179c1.792-0.001,3.392-0.514,4.803-1.54c0.458-0.35,0.838-0.52,1.117-0.52
	c0.257,0,0.528,0.179,0.824,0.543c0.861,1.009,2.033,1.512,3.508,1.512c1.157,0,2.267-0.312,3.322-0.925
	c0.86-0.489,1.559-1.104,2.103-1.825c0.543-0.729,0.814-1.428,0.813-2.104c0-0.519-0.225-0.814-0.675-0.884
	s-0.746-0.146-0.893-0.225c-0.14-0.086-0.287-0.279-0.443-0.589c-0.311-0.646-0.466-2.05-0.467-4.223l0.045-3.129
	c-0.001-1.482-0.188-2.646-0.545-3.499c-0.357-0.846-0.986-1.6-1.896-2.251c-1.698-1.233-3.78-1.854-6.232-1.852
	C270.483,116.451,267.822,117.128,265.268,118.472 M256.684,120.314c-0.356-0.892-0.972-1.66-1.864-2.319
	c-1.265-0.924-2.787-1.389-4.564-1.388c-2.313,0.001-4.073,0.871-5.284,2.61c-0.38,0.528-0.743,0.8-1.078,0.8
	c-0.566,0-0.846-0.341-0.847-1.008c0-0.087,0.007-0.187,0.022-0.295c0.009-0.312,0.016-0.481,0.016-0.529
	c0-0.419-0.14-0.783-0.435-1.086c-0.287-0.311-0.645-0.466-1.063-0.465c-0.466,0-1.327,0.164-2.577,0.498
	c-1.257,0.326-2.561,0.729-3.912,1.204c-1.535,0.552-2.553,1.002-3.049,1.36c-0.488,0.356-0.736,0.814-0.736,1.373
	c0,0.545,0.303,1.009,0.908,1.39c0.706,0.427,1.134,0.799,1.282,1.102c0.147,0.295,0.224,0.932,0.225,1.894
	c0.001,1.754-0.053,3.432-0.152,5.022c-0.077,1.343-0.17,2.188-0.271,2.53c-0.101,0.34-0.333,0.651-0.698,0.917
	c-0.449,0.317-0.736,0.566-0.854,0.744c-0.123,0.171-0.178,0.428-0.178,0.769c0.001,1.606,1.957,2.413,5.877,2.411
	c2.453-0.001,4.253-0.195,5.409-0.592c1.156-0.389,1.738-1.002,1.737-1.824c0-0.326-0.077-0.613-0.232-0.862
	c-0.598-0.885-0.947-1.481-1.049-1.784c-0.109-0.311-0.163-0.878-0.163-1.7l-0.002-4.16c-0.001-1.584,0.177-2.678,0.534-3.275
	c0.349-0.606,0.993-0.908,1.939-0.909c0.986,0,1.661,0.372,2.034,1.117c0.45,0.923,0.677,2.352,0.678,4.283
	c0.001,3.33-0.278,5.294-0.844,5.877c-0.481,0.521-0.761,0.847-0.846,0.979c-0.087,0.132-0.125,0.34-0.124,0.62
	c0,0.784,0.412,1.351,1.243,1.699c0.807,0.334,2.181,0.505,4.129,0.503c2.856-0.002,4.843-0.18,5.961-0.545
	c1.109-0.366,1.669-1.011,1.669-1.933c-0.001-0.412-0.11-0.724-0.32-0.948c-0.721-0.752-1.149-1.265-1.297-1.527
	c-0.154-0.272-0.24-0.685-0.272-1.243l-0.297-7.396C257.251,122.512,257.034,121.2,256.684,120.314 M218.431,109.774
	c-1.729,0.692-2.599,1.639-2.599,2.843c0.001,0.892,0.412,1.59,1.228,2.096c0.604,0.395,1.427,0.589,2.451,0.588
	c2.437,0,4.517-0.499,6.24-1.493c1.086-0.629,1.628-1.483,1.628-2.562c0-0.769-0.364-1.381-1.079-1.84
	c-0.722-0.457-1.692-0.682-2.919-0.681C221.845,108.726,220.191,109.076,218.431,109.774 M226.403,116.616
	c-0.984,0.001-2.382,0.22-4.183,0.64c-1.8,0.42-3.491,0.933-5.073,1.531c-1.142,0.435-1.708,1.095-1.707,1.973
	c0,0.744,0.435,1.303,1.313,1.684c0.698,0.31,1.093,0.752,1.18,1.318c0.03,0.21,0.078,0.954,0.139,2.221
	c0.063,1.265,0.095,2.134,0.095,2.593c0,1.442-0.092,2.529-0.27,3.251c-0.187,0.73-0.497,1.258-0.931,1.577
	c-0.636,0.465-1.03,0.799-1.187,1.009c-0.155,0.21-0.232,0.505-0.232,0.885c0,0.45,0.156,0.846,0.458,1.194
	c0.303,0.35,0.7,0.599,1.196,0.738c1.451,0.387,3.415,0.58,5.898,0.579c4.61-0.002,6.916-0.903,6.915-2.711
	c-0.001-0.335-0.079-0.605-0.226-0.824c-0.147-0.217-0.443-0.48-0.878-0.791c-0.535-0.38-0.894-0.791-1.071-1.24
	c-0.172-0.443-0.264-1.149-0.265-2.12l-0.005-12.2C227.569,117.052,227.179,116.616,226.403,116.616 M194.665,108.737
	c-1.778,0.001-4.51,0.685-8.204,2.044c-1.156,0.42-1.986,0.84-2.49,1.268c-0.513,0.428-0.761,0.908-0.761,1.443
	c0.001,0.8,0.576,1.272,1.732,1.428c0.637,0.084,1.033,0.341,1.196,0.775s0.241,1.437,0.242,3.004l0.001,4.595
	c0.018,4.091-0.137,7.118-0.462,9.073c-0.085,0.365-0.194,0.629-0.333,0.8c-0.139,0.171-0.465,0.412-0.978,0.737
	c-0.589,0.39-0.885,0.855-0.885,1.382c0.001,0.481,0.171,0.932,0.506,1.359c0.341,0.427,0.754,0.706,1.227,0.845
	c0.846,0.24,2.678,0.356,5.503,0.354c2.392-0.001,4.114-0.218,5.154-0.654c1.048-0.435,1.567-1.141,1.567-2.118
	c-0.001-0.575-0.187-1.01-0.552-1.304c-0.504-0.404-0.83-0.754-0.97-1.04c-0.14-0.287-0.209-0.746-0.21-1.375
	c0-0.698,0.023-1.171,0.077-1.427c0.062-0.249,0.17-0.381,0.341-0.381c0.14,0,0.31,0.117,0.52,0.341
	c0.202,0.226,0.77,0.924,1.702,2.095l3.51,4.479c0.481,0.612,1.149,0.93,2.01,0.937l6.854-0.002c1.11-0.001,1.987-0.211,2.63-0.631
	c0.636-0.419,0.962-1.001,0.962-1.737c-0.001-0.707-0.513-1.327-1.522-1.871c-0.668-0.364-1.18-0.705-1.561-1.031
	c-0.372-0.318-0.885-0.876-1.553-1.676c-1.024-1.218-2.135-2.654-3.331-4.291c-1.188-1.646-1.787-2.568-1.787-2.762
	c0-0.296,0.488-0.77,1.482-1.421c0.986-0.653,1.785-1.034,2.406-1.143c0.691-0.132,1.103-0.218,1.226-0.28
	c0.606-0.248,0.909-0.691,0.908-1.32c0-0.435-0.147-0.838-0.442-1.219c-0.295-0.379-0.668-0.643-1.118-0.798
	c-1.133-0.388-2.67-0.589-4.611-0.589c-3.749,0.003-5.626,0.765-5.625,2.277c0,0.264,0.116,0.543,0.341,0.839
	c0.312,0.402,0.467,0.682,0.467,0.837c0,0.264-0.442,0.668-1.312,1.212c-0.876,0.535-1.521,0.808-1.947,0.809
	c-0.49,0-0.792-0.288-0.885-0.861c-0.047-0.248-0.063-1.087-0.064-2.499c-0.001-1.274,0.007-2.244,0.014-2.896l0.192-6.574
	C195.861,109.078,195.472,108.736,194.665,108.737 M165.84,114.966c0.707,0.489,1.327,1.165,1.864,2.019
	c0.87,1.38,1.584,3.057,2.137,5.012c0.551,1.965,0.824,3.788,0.825,5.488c0,1.297-0.325,2.352-0.984,3.145
	c-0.652,0.798-1.513,1.203-2.584,1.203c-0.667,0.001-1.32-0.209-1.957-0.612c-0.644-0.403-1.18-0.954-1.623-1.637
	c-0.985-1.606-1.802-3.453-2.455-5.533c-0.646-2.079-0.972-3.911-0.973-5.487c0-1.079,0.271-2.011,0.806-2.795
	c0.691-1.048,1.622-1.576,2.809-1.576C164.428,114.214,165.133,114.478,165.84,114.966 M159.326,109.257
	c-2.863,1.063-5.137,2.733-6.829,5.001c-1.9,2.547-2.854,5.488-2.852,8.818c0.001,2.872,0.747,5.495,2.223,7.878
	c1.522,2.459,3.635,4.306,6.329,5.523c2.228,1,4.557,1.504,7.002,1.503c1.854-0.001,3.709-0.296,5.557-0.879
	c3.003-0.972,5.432-2.557,7.294-4.77c2.195-2.608,3.296-5.566,3.295-8.864c-0.001-2.244-0.561-4.479-1.672-6.722
	c-1.142-2.25-2.632-4.089-4.465-5.501c-2.71-2.056-5.877-3.088-9.494-3.086C163.369,108.16,161.243,108.526,159.326,109.257"/>
<path d="M95.285,108.863c-1.482,0.28-2.515,0.599-3.097,0.956c-0.59,0.357-0.876,0.839-0.876,1.438c0,0.395,0.094,0.721,0.296,0.969
	c0.193,0.248,0.583,0.567,1.165,0.946c0.746,0.458,1.218,0.978,1.413,1.552c0.373,1.01,0.552,3.308,0.554,6.885
	c0.002,5.186-0.129,8.569-0.398,10.168c-0.125,0.73-0.536,1.304-1.226,1.724c-0.901,0.544-1.35,1.134-1.35,1.763
	c0.001,1.739,2.299,2.6,6.894,2.597c2.693-0.001,4.967-0.219,6.83-0.67c1.723-0.42,2.576-1.188,2.576-2.313
	c0-0.8-0.466-1.405-1.391-1.823c-0.512-0.248-0.869-0.489-1.071-0.707c-0.201-0.217-0.357-0.527-0.458-0.931
	c-0.265-1.273-0.397-4.587-0.4-9.936c-0.001-3.166,0.099-5.293,0.3-6.379c0.202-1.096,0.627-1.802,1.28-2.128
	c0.776-0.388,1.257-0.691,1.451-0.894c0.186-0.201,0.279-0.504,0.279-0.908c0-1.234-0.956-2.04-2.874-2.42
	c-1.427-0.279-2.941-0.419-4.547-0.418C98.832,108.334,97.047,108.514,95.285,108.863"/>
</svg>
