<?xml version="1.0" encoding="utf-8"?>
<!-- Generator: Adobe Illustrator 16.0.0, SVG Export Plug-In . SVG Version: 6.00 Build 0)  -->
<!DOCTYPE svg PUBLIC "-//W3C//DTD SVG 1.1//EN" "http://www.w3.org/Graphics/SVG/1.1/DTD/svg11.dtd">
<svg version="1.1" id="圖層_1" xmlns="http://www.w3.org/2000/svg" xmlns:xlink="http://www.w3.org/1999/xlink" x="0px" y="0px"
	 width="220px" height="70px" viewBox="0 0 220 70" enable-background="new 0 0 220 70" xml:space="preserve">
<g>
	<path fill="#00A0E9" d="M30.279,46.208c0,0-0.276,1.925-1.738,0.233c-1.462-1.689-0.797-5.072,0.952-6.301
		c1.745-1.228,3.362-0.936,3.958-0.273c0.593,0.658,0.923-2.342,3.698-0.847c2.778,1.494-0.125,1.527,2.95,2.207
		c3.075,0.682,4.017,1.526,4.12,3.481c0.103,1.96-1.434,1.045-0.412,1.169c1.021,0.125,1.775,5.976-0.714,6.951
		c-2.489,0.976-2.601,2.304-2.605,2.799c-0.003,0.498-1.085,2.926-4.604,0.684c-3.515-2.247-4.793-2.928-4.837-5.148
		c-0.041-2.222,0.514-0.188,1.901-0.335c0,0,0.845-0.083-0.288-0.676c-1.135-0.592-0.227-0.935,0.896-0.649
		c1.122,0.287,2.368-0.45,0.56-0.758c-1.808-0.303-2.976-0.021-1.375-1.335c1.601-1.317,1.504-1.977-0.02-1.11
		c-1.527,0.866-1.57,0.937-0.581-0.853c0.992-1.788-0.013-2.101-0.694-0.821C30.762,45.903,30.279,46.208,30.279,46.208"/>
	<path fill="#00A0E9" d="M24.362,56.56c0,0-1.425,2.821,0.193,5.403c1.615,2.583,0.298,5.068-2.125,4.785
		c-2.419-0.279-1.491,0.487-2.325,0.873c-0.838,0.391-2.357,0.757-3.281-1.004c-0.92-1.756-1.495,0.984-3.335-0.738
		c-1.843-1.721,0.046-4.161,0.178-4.379c0.132-0.219-1.887-1.646-0.45-4.165c1.433-2.514,3.966-1.269,5.209-1.505
		c1.243-0.243,1.71-0.356,0.545,1.23c-1.165,1.582-0.564,1.251,0.904,0.151c1.468-1.101,0.199,0.817-0.711,1.659
		c-0.912,0.84,0.245,2.047,1.079-0.14c0.836-2.183,1.215-2.151,0.856-1.073c-0.357,1.076,0.27,2.658,0.978,0.199
		C22.78,55.395,25.319,53.352,24.362,56.56"/>
	<path fill="#00A0E9" d="M30.857,54.738c0,0,1.563,1.85,3.461,2.013c1.897,0.158,3.636,1.722,4.532,2.865
		c0.896,1.146,1.486,4.598-1.84,5.957c-3.323,1.363-3.432,0.396-4.086,1.795c-0.654,1.396-1.589,1.626-2.824,0.871
		c-1.236-0.757-0.815-2.591-2.495-2.123c-1.683,0.468-1.489-2.303-0.454-4.165c0,0-1.835-0.42-2.312-2.904
		c-0.476-2.486,2.721-6.423,2.675-4.551c0,0-1.472,1.594-0.307,2.305c1.161,0.71,1.063-1.745,1.063-1.745s0.805,3.584,0.917,2.255
		c0.112-1.329-0.609-2.267,0.611-1.325c1.216,0.942,1.103,0.476,0.152-0.903C28.995,53.704,29.438,52.978,30.857,54.738"/>
	<path fill="#00A0E9" d="M26.27,43.462c0,0,0.167-2.891,3.31-5.261c3.143-2.371,0.66-4.68-1.311-4.391c0,0-0.627-0.28-0.539-2.224
		c0.088-1.94-2.814-2.414-4.185-0.656c0,0-2.553-2.356-3.693-0.159c-1.141,2.195-1.393,4.734-1.035,5.451
		c0.359,0.722-1.211-1.44-2.345-0.236c-1.137,1.204-1.148,2.693,0.087,3.448c1.235,0.751,1.851,2.524,1.743,3.357
		c-0.108,0.83,3.298,4.401,5.756,3.313c0,0,0.689-0.479-0.869-1.032c-1.556-0.55-1.747-2.36-0.73-1.742
		c1.018,0.621,1.15,0.406,0.472-0.607c-0.678-1.013,0.012-1.491,0.807-0.507c0.795,0.986,0.248-2.041,1.32-0.69
		c1.073,1.353-0.548,2.856,0.517,3.406C26.634,45.479,26.27,43.462,26.27,43.462"/>
	<path fill="#00A0E9" d="M25.252,48.725c0,0,2.223-2.335,4.005-0.349c1.777,1.983-0.68,4.871-4.058,5.504
		c-3.378,0.632-8.24,0.755-10.227,0.74c-1.988-0.015-4.718,0.213-4.718,0.213s-1.756,2.716-0.469,4.199c0,0,1.149-0.896,1.271,0.374
		c0.121,1.273-1.356,1.57-2.104,0.017c-0.748-1.555-0.722-3.233,0.208-4.757l-2.878,0.632c0,0-1.534,2.354,0,1.796
		c0,0,1.04-0.562,1.196,0.331c0.152,0.892-0.28,2.424-2.08,0.628c-1.793-1.796-0.048-3.023-0.048-3.023s-1.481-1.005-1.513-2.918
		c-0.028-1.912,3.646-1.068,0.989,0.507c0,0,0.309,1.784,1.68,1.822c1.371,0.038,2.513-0.362,2.513-0.362s-2.883-0.662-2.967-3.308
		C5.97,48.13,9.201,49.702,7.19,50.867c0,0,0.068,2.832,5.089,2.609c5.026-0.225,7.418-0.063,10.059-1.94
		C24.983,49.657,25.252,48.725,25.252,48.725"/>
	<path fill="#00A0E9" d="M22.996,47.848c0,0-4.068-0.688-5.468-3.139c-1.396-2.446-1.434-3.369-1.38-4.432
		c0.049-1.064-1.653-1.706-2.603-1.289c-0.955,0.417-1.909,1.33-1.717,2.641c0.195,1.318-1.858,0.762-2.868,0.945
		c-1.009,0.18-0.966,0.604-1.148,1.391c-0.183,0.787-0.015,1.988,1.193,2.626c1.204,0.635-0.817,0.195,0.761,1.859
		c1.575,1.661,0.589,2.951,4.556,3.479c3.97,0.524,4.757,0.208,6.327-0.727c1.57-0.939-3.417,0.208-1.353-0.725
		c2.068-0.937,1.422-0.53-0.199-0.821c-1.617-0.289-4.13-1.726-1.402-1.457c2.727,0.268,5.209,2.082,1.067-0.444
		c-4.142-2.527-0.354-1.216,1.359-0.266C21.839,48.436,22.996,47.848,22.996,47.848"/>
	<path fill="#00A0E9" d="M193.737,49.363c0,0-1.579-1.912,1.269-1.844c2.852,0.073,5.471,3.605,5.13,6.311
		c-0.341,2.699-2.005,3.979-3.138,3.972c-1.135-0.008,2.257,3.073-1.538,4.411c-3.794,1.337-2.174-1.625-5.454,0.69
		c-3.283,2.32-3.866-0.449-5.802-2.035c-1.938-1.585-1.777-0.271-2.773,0.586c-0.993,0.854-6.16-2.498-4.942-5.682
		c1.213-3.188,0.061-4.435-0.408-4.862c-0.464-0.429-1.824-3.536,3.31-4.931c5.14-1.389,6.885-2.013,9.012-0.146
		c2.132,1.865-0.265,0.646-1.313,2.081c0,0-0.654,0.868,0.882,0.311c1.534-0.564,1.078,0.588-0.156,1.402
		c-1.233,0.811-1.607,2.619,0.23,1.177c1.842-1.446,2.583-2.791,2.447-0.15c-0.132,2.644,0.573,3.114,1.063,0.933
		c0.495-2.184,0.464-2.284,1.303,0.186c0.838,2.47,1.996,1.791,1.371,0.05C193.604,50.081,193.737,49.363,193.737,49.363"/>
	<path fill="#00A0E9" d="M189.045,34.893c0,0-1.439-3.763-5.265-4.454c-3.822-0.692-5.039-4.074-2.694-6.116
		c2.344-2.043,0.825-1.824,1.175-2.946c0.351-1.123,1.309-2.872,3.759-2.233c2.454,0.642,0.357-2.256,3.563-2.515
		c3.207-0.258,3.89,3.614,3.979,3.925c0.095,0.316,3.175-0.363,4.319,3.15c1.142,3.514-2.208,4.836-3.049,6.211
		c-0.841,1.379-1.138,1.917-1.629-0.541c-0.492-2.458-0.698-1.604-0.919,0.721c-0.225,2.33-0.943-0.514-0.955-2.095
		c-0.009-1.582-2.145-1.522-0.799,1.137c1.347,2.665,0.987,2.996,0.281,1.73c-0.71-1.262-2.742-2.025-1.027,0.753
		C191.504,34.397,191.249,38.547,189.045,34.893"/>
	<path fill="#00A0E9" d="M181.559,32.897c0,0,1.976-1.372,4.734,0.314c2.751,1.681,3.72,8.075,1.994,6.431
		c0,0-0.243-2.759-1.91-2.271c-1.668,0.488,0.734,2.501,0.734,2.501s-4.073-2.316-2.915-1.07c1.153,1.247,2.66,1.37,0.725,1.71
		c-1.936,0.346-1.397,0.637,0.721,0.92c2.12,0.287,2.429,1.328-0.455,1.153c0,0-3.086-0.112-4.864,1.54
		c-0.678,0.628-1.527,1.061-2.42,1.346c-1.456,0.473-1.354-4.18-1.354-4.18"/>
	<path fill="#00A0E9" d="M199.769,47.937c0,0,2.584,2.639,2.122,7.64c-0.457,4.999,3.852,4.645,5.269,2.531
		c0,0,0.808-0.347,2.562,1.401c1.758,1.749,4.696-0.582,4.213-3.384c0,0,4.415-0.388,3.322-3.349
		c-1.093-2.963-3.271-5.379-4.261-5.654c-0.985-0.279,2.404,0.089,2.239-2.016c-0.161-2.104-1.556-3.393-3.328-2.873
		s-3.971-0.424-4.664-1.238c-0.689-0.817-6.986-0.67-8.067,2.591c0,0-0.145,1.06,1.714,0.061c1.857-0.992,3.732,0.383,2.275,0.808
		c-1.461,0.43-1.371,0.741,0.169,0.97c1.538,0.229,1.398,1.289-0.215,1.191c-1.612-0.093,1.71,1.99-0.482,1.84
		c-2.193-0.151-2.227-2.968-3.655-2.438C197.551,46.548,199.769,47.937,199.769,47.937"/>
	<path fill="#00A0E9" d="M195.676,42.458c0,0,0.294,4.102-3.107,4.081c-3.401-0.026-4.015-4.826-1.711-8.556
		c2.303-3.73,6.359-8.426,8.077-10.286c1.721-1.862,3.851-4.637,3.851-4.637s-1.058-3.99-3.563-4.051c0,0-0.14,1.854-1.44,0.877
		c-1.306-0.977-0.316-2.622,1.79-1.996c2.109,0.626,3.672,2.094,4.313,4.284l1.872-3.265c0,0-0.901-3.472-1.695-1.539
		c0,0-0.362,1.46-1.337,0.842c-0.974-0.619-2.046-2.345,1.192-2.497c3.232-0.158,2.896,2.546,2.896,2.546s2.221-0.539,4.048,1.077
		c1.833,1.616-2.117,4.357-1.321,0.5c0,0-1.951-1.242-3.163,0.021c-1.219,1.263-1.818,2.686-1.818,2.686s3.104-2.156,5.669,0.037
		c2.564,2.192-1.689,3.889-1.067,0.989c0,0-2.731-2.367-6.833,2.566c-4.1,4.935-6.307,7.055-6.805,11.157
		C195.025,41.403,195.676,42.458,195.676,42.458"/>
	<path fill="#00A0E9" d="M198.441,41.083c0,0,4.139-3.251,7.654-2.465c3.51,0.781,4.411,1.537,5.368,2.499
		c0.965,0.966,3.029-0.092,3.452-1.351c0.424-1.254,0.385-2.941-1.022-3.888c-1.405-0.946,0.88-2.409,1.573-3.515
		c0.693-1.106,0.261-1.434-0.327-2.278c-0.586-0.849-1.86-1.722-3.5-1.129c-1.637,0.593,0.519-0.942-2.408-0.88
		c-2.923,0.064-3.293-1.977-7.196,1.316c-3.901,3.294-4.282,4.311-4.746,6.594c-0.462,2.288,2.737-3.403,1.847-0.651
		c-0.891,2.751-0.719,1.795,0.944,0.513c1.661-1.278,5.176-2.421,2.578-0.075c-2.594,2.343-6.439,3.132-0.499,1.391
		c5.941-1.74,1.454,0.706-0.914,1.514S198.441,41.083,198.441,41.083"/>
	<path fill="#00A0E9" d="M166.942,59.19c0.112-0.004,0.226-0.008,0.338-0.008C167.184,59.155,167.067,59.168,166.942,59.19
		 M164.982,59.184c-0.74-0.073-1.372-0.4-2.101-0.396c-0.74,0.005-1.594,0.117-2.325,0.006c-0.612-0.099-1.38-0.962-1.509-1.57
		c-0.366-0.026-0.541-0.417-0.795-0.658c-0.23-0.21-0.37-0.242-0.636-0.393c-0.529-0.3-0.971-0.658-1.441-1.024
		c-0.421-0.327-0.803-0.689-1.232-1.045c-0.129-0.113-0.257-0.334-0.417-0.481c-0.226-0.211-0.479-0.472-0.468-0.8l-0.374-0.132
		c-0.358,0.125,0.083,0.842,0.222,1.068c0.079,0.128,0.212,0.231,0.277,0.37c0.09,0.182,0.047,0.342,0.118,0.502
		c0.245,0.596,0.767,1.012,1.115,1.608c0.782,1.355,1.896,2.178,3.13,3.054c0.666,0.471,1.188,0.408,2.014,0.407h2.321
		c0.808-0.001,1.594,0.029,2.365-0.134c0.339-0.071,0.713-0.156,1.053-0.219c0.178-0.036,0.421-0.117,0.643-0.156
		C166.291,59.202,165.625,59.245,164.982,59.184 M130.545,2.71h-0.065c0.022,0,0.047,0.004,0.074,0.004
		C130.549,2.714,130.549,2.71,130.545,2.71 M133.858,4.013c0.58,0.055,1.379,0.51,1.857,0.864c0.472,0.346,1.04,0.732,1.414,1.165
		c0.235,0.268,0.379,0.604,0.603,0.888c0.322,0.42,0.731,0.775,1.06,1.184c0.436,0.546,0.449,1.578,0.721,2.229
		c0.214,0.506,0.504,1.083,0.795,1.522c0.313,0.464,0.57,1.106,0.952,1.516c0.022-0.721-0.129-1.485-0.129-2.229
		c0-0.811,0.011-1.333-0.391-2.046c-0.68-1.219-1.591-2.418-2.542-3.435c-0.498-0.53-0.946-1.016-1.531-1.437
		c-0.278-0.194-0.503-0.514-0.827-0.611c-0.304-0.093-0.735,0.035-1.056,0.008c-0.628-0.055-1.208-0.18-1.811-0.252
		c-0.32-0.039-0.563-0.128-0.877-0.226c-0.43-0.136-1.028-0.377-1.543-0.439C131.045,3.808,132.872,3.924,133.858,4.013
		 M94.778,54.151c-0.265,0-0.659,0.083-0.911,0.015c-0.395-0.114-0.785-0.406-1.197-0.535c-0.558-0.175-1.231-0.194-1.804-0.264
		c-0.288-0.035-0.624,0.09-0.896-0.016c-0.222-0.089-0.425-0.393-0.636-0.502c-0.572-0.304-1.188-0.358-1.738-0.693
		c-0.268-0.163-0.521-0.21-0.779-0.343c-0.199-0.102-0.316-0.318-0.511-0.396c-0.327-0.132-0.701-0.074-1.056-0.253
		c-0.292-0.145-0.553-0.334-0.792-0.49c-0.424-0.281-0.768-0.537-1.309-0.55l0.125,0.261c-0.051,0.363,0.83,0.971,1.095,1.181
		c0.422,0.335,0.838,0.626,1.208,1.014c0.44,0.455,0.978,0.824,1.372,1.314c0.457,0.573,0.769,0.896,1.56,0.912
		c1.336,0.027,2.676-0.001,4.017-0.002c0.771,0,1.627,0.128,2.388,0.007c0.6-0.094,1.095-0.449,1.651-0.663
		C95.971,54.172,95.37,54.151,94.778,54.151 M92.472,43.427l-7.443-12.651l-6.911,12.657l-6.646,0.003l9.795-17.879l-9.44,0.004
		l-0.001-3.156l10.165-0.004l-0.002-5.855l5.981-0.002l0.002,5.856l10.347-0.005l0.002,3.156l-10.349,0.004l-1,1.763l2.762-0.002
		l9.26,16.11L92.472,43.427z M101.718,30.523c-1.267-3.763,0.063-7.858-1.033-11.633c-0.604-2.073-1.116-3.763-2.983-5.076
		c-0.731-0.518-1.526-0.919-2.113-1.646c-0.541-0.67-0.676-1.04-1.464-1.477c-1.048-0.584-2.104-0.533-3.203-0.871
		c-1.203-0.374-2.288-1.082-3.484-1.471c-1.737-0.564-4.534-0.493-6.346-0.18c-2.069,0.355-4.046,1.719-5.823,2.713
		c-1.211,0.683-2.087,0.948-2.984,2.063c-0.646,0.802-1.023,1.609-1.46,2.517c-0.35,0.729-0.821,1.26-0.93,2.097
		c-0.073,0.587,0.153,1.192-0.026,1.78c-0.307,1.029-0.471,1.645-0.47,2.778c0.004,0.931,0.067,1.885,0.009,2.813
		c-0.027,0.475-0.02,0.95-0.187,1.415c-0.203,0.561-0.362,0.53-0.588,0.979c-0.214,0.416-0.596,1.032-0.719,1.468
		c-0.094,0.32,0.046,0.694-0.102,0.994c-0.198,0.4-0.755,0.654-1.048,0.986c-0.821,0.931-0.579,2.049-1.131,3.136
		c-0.784,1.532-0.938,2.752-0.428,4.447c0.473,1.58,1.178,3.034,2.398,4.12c2.097,1.865,4.396,2.263,6.894,3.401
		c1.434,0.663,2.661,0.577,4.255,0.576l-4.204,0.772c1.321,0,2.641,0.012,3.958-0.001c0.351-0.001,0.876-0.118,1.204-0.028
		c0.483,0.137,0.779,0.631,1.321,0.755c0.775,0.179,1.029,0.046,1.746,0.479c0.44,0.271,0.646,0.573,1.033,0.858
		c1.465,1.078,3.3,1.999,4.988,2.705c1.013,0.419,2.366,0.995,3.433,1.154c1.001,0.148,2.182,0.003,3.19-0.009
		c1.641-0.016,3.304-0.839,4.761-1.596c1.15-0.597,2.192-1.259,3.197-2.035c1.691-1.302,2.512-3.136,2.573-5.362
		c0.081-2.78-0.474-4.889-1.631-7.377C103.392,34.778,102.428,32.635,101.718,30.523 M29.14,10.381h-0.674
		C28.735,10.381,28.96,10.42,29.14,10.381 M30.919,9.659c0.272-0.132,0.526-0.261,0.779-0.425c0.055-0.035,0.199-0.151,0.269-0.199
		c0.643-0.226,1.289-0.452,1.936-0.675c1.863-0.627,3.725-1.264,5.583-1.903c0.07,0.004,0.725-0.047,0.903-0.109
		c0.301-0.105,0.655-0.285,0.915-0.464c0.608-0.424,1.146-1.075,1.831-1.387c0.246-0.109,0.659-0.082,0.932-0.122
		c0.369-0.059,0.686-0.206,1.016-0.413c0.339-0.214,0.627-0.487,0.947-0.709c0.108-0.075,0.132-0.184,0.26-0.238
		c0.218-0.093,0.433,0.09,0.639-0.097c-0.436-0.144-0.912,0.159-1.332,0.242c-0.452,0.087-0.893,0.125-1.34,0.266
		c-0.486,0.16-0.899,0.118-1.414,0.138c-0.495,0.019-0.962,0.175-1.445,0.242c-0.413,0.051-0.928-0.023-1.309,0.184
		c-0.394,0.21-0.881,0.538-1.246,0.814c-0.874,0.66-1.636,1.59-2.602,2.125c-0.346,0.195-0.713,0.164-1.087,0.273
		c-0.355,0.105-0.717,0.214-1.079,0.257c-0.394,0.043-0.764,0.04-1.138,0.125c-0.386,0.09-0.588,0.254-0.912,0.402
		c-0.35,0.164-0.744,0.234-1.106,0.405c-0.315,0.148-1.247,0.301-1.421,0.597c-0.155,0.261,0.059,0.728-0.019,1.017
		c-0.066,0.25-0.183,0.343-0.339,0.379l0.861-0.001C30.172,10.014,30.577,9.823,30.919,9.659 M133.538,39.335l-3.04-9.01
		l5.494-0.002l3.129,9.011L133.538,39.335z M130.287,29.292l2.85-5.678l5.672-0.002l-2.849,5.678L130.287,29.292z M129.773,39.368
		l-7.254,0.003l-1.275-2.852l2.824-0.002l-0.004-10.044l-3.58,0.001l-1.519,1.731l4.581-0.002l-4.093,4.763l4.399-0.001
		l-5.339,6.407l-6.37,0.004l5.034-5.921l-4.706,0.002l4.218-4.95l-4.612,0.001l5.154-6.066l-2.851,0v-1.761l-2.155,0l-0.003-5.917
		l10.41-0.004l-0.822-2.092l6.069-0.002l0.882,2.091l9.833-0.004l0.002,5.918l-2.032,0v1.762l-12.534,0.005l-1.063,1.211
		l6.799-0.002L129.773,39.368z M139.292,12.057c-0.453-0.81-0.951-1.488-1.501-2.228c-0.507-0.678-0.776-1.558-1.338-2.189
		c-0.895-1.008-2.4-1.713-3.545-2.375c-1.42-0.821-2.713-1.802-4.047-2.725c-1.947-1.351-4.703-1.755-7.063-1.435
		c-1.929,0.262-3.789,1.178-5.652,1.763c-1.071,0.34-1.905,0.96-2.964,1.318c-1.06,0.36-1.99,0.846-2.875,1.537
		c-2.038,1.578-3.353,4.244-4.147,6.579c-0.595,1.749-0.256,3.821-0.056,5.629c0.211,1.896,0.192,3.728,1.056,5.458
		c0.36,0.721,0.789,1.589,1.304,2.236c0.323,0.409,0.685,0.424,0.865,1.04c0.434,1.461-0.217,3.234-0.532,4.632
		c-0.354,1.574-0.521,3.082-0.517,4.703l-0.264-8.03c0.105-0.646-0.955-0.845-1.278-0.424c-0.086,0.105,0.277,1.554,0.246,1.847
		c-0.175,1.647-0.532,3.074-0.531,4.725c0,1.696,0.259,3.488,0.968,5.069c0.441,0.985,1.376,2.818,2.221,3.467
		c1.131,0.867,2.254,1.908,3.525,2.391c1.145,0.438,2.489,0.618,3.675,1.096c1.023,0.409,2.135,0.907,3.115,1.355
		c0.667,0.305,1.218,0.631,1.927,0.748c0.958,0.163,2.449,0.115,3.436,0.013c0.795-0.081,1.457-0.456,2.24-0.589
		c0.911-0.156,1.975-0.067,2.914-0.176c1.71-0.203,3.158-0.728,4.765-1.292c5.348-1.896,7.156-6.942,7.154-12.081l-0.003-8.614
		c-0.002-2.454,0.196-5.029-0.557-7.386C141.206,16.166,140.294,13.841,139.292,12.057 M132.769,17.607l-14.657,0.006l0.001,1.882
		l14.657-0.005L132.769,17.607z M156.944,43.023l-0.363,1.366l1.273-0.001l-0.005-11.196h-0.909L156.944,43.023z M147.659,44.269
		l-0.172-9.813c0.05,0.203,0.108,0.406,0.172,0.616C148.536,37.902,147.657,41.344,147.659,44.269 M182.492,23.889
		c-0.41-1.752-0.685-3.533-1.85-4.892c-0.744-0.865-1.581-1.39-2.362-2.188c-0.833-0.854-1.621-1.796-2.518-2.583
		c-1.363-1.199-3.234-1.939-5.016-2.592c-0.674-0.253-1.362-0.845-2.045-0.973c-0.472-0.086-0.938,0.117-1.422,0.008
		c-0.709-0.152-1.236-0.658-1.995-0.771c-0.496-0.074-0.971-0.054-1.477-0.151c-1.785-0.351-3.742-1.066-5.615-0.454
		c-0.859,0.276-1.585,0.877-2.376,1.236c-0.327,0.152-0.705,0.074-1.009,0.277c-0.382,0.261-0.631,0.904-1.009,1.205
		c-0.505,0.397-1.156,0.631-1.573,1.208c-0.494,0.682-0.934,1.543-1.432,2.275c-1.172,1.715-1.9,3.632-1.93,5.775
		c-0.02,1.625,0.152,3.323-0.047,4.936c-0.178,1.465-1.059,2.506-1.407,3.897l-0.008-0.409c-0.461,0.319-1.11,1.501-1.273,2.214
		c-0.171,0.751-0.125,0.903-0.432,1.597c-0.227,0.514-0.273,1.016-0.311,1.566c-0.048,0.608,0.081,1.243,0.02,1.85
		c-0.059,0.541-0.362,1.076-0.447,1.575c-0.199,1.188-0.314,3.077-0.01,4.227c0.215,0.807,0.925,2.049,1.426,2.551
		c0.813,0.808,2.074,1.348,2.975,2.018c1.854,1.39,3.468,3.149,5.277,4.606c0.589,0.476,1.22,0.76,1.776,1.3
		c0.584,0.559,1.014,1.353,1.561,1.883c0.502,0.485,1.624,1.159,2.263,1.499c0.3,0.21,0.628,0.3,0.987,0.275
		c0.264,0.007,0.416,0.159,0.455,0.444c0.997,0.466,2.357,0.302,3.588,0.302c0.701-0.001,1.801,0.241,2.462-0.031
		c0.654-0.27,0.998-0.586,1.719-0.77c2.897-0.721,5.073-4.423,6.113-7.143c0.3-0.791,0.6-1.549,0.888-2.305l-3.592,0.002
		l-2.005-4.485l-2.729,4.487l-10.62,0.006l-1.064-2.459l-0.696,2.459l-5.038,0.002l1.273-4.582l-0.008-16.325l-0.971,0l-0.002-2.946
		l2.82-0.001l-0.756-3.034l5.919-0.002l0.787,3.034l2.674-0.001l0.001,2.945l-5.494,0.003l0.002,3.701l5.369-0.002l0.001,2.459
		l1.638-4.068l-2.092,0l3.032-8.074l5.037-0.002l-0.76,2.127l8.829-0.004l0.001,2.91l-9.923,0.004l-0.425,1.126l1.579,0
		l-0.755,2.092l8.77-0.003l0.001,2.973l-3.612,0.001l0.002,3.916l4.399-0.001l0.001,2.972l-4.489,0.002l-0.791,1.215h2.339
		l2.25,5.044c0.514-1.313,1.336-2.42,2.06-3.627c2.121-3.513,3.329-6.595,3.331-10.856C182.73,28.241,182.972,25.942,182.492,23.889
		 M166.316,34.463l-4.005,0.002l0.005,12.592l5.279-8.469l-4.675,0.003l-0.001-2.943l5.31-0.002l-0.002-3.946h-0.88L166.316,34.463z
		 M38.292,27.722l3.883-0.002l0-2.124l-3.884,0.002L38.292,27.722z M52.618,38.793l-6.799,0.003l1.184-1.67l-14.715,1.617
		l-0.001-2.763l7.764-0.853l1.183-3.853l5.22-0.003l-0.94,3.215l2.278-0.211l0.001,1.757l4.853-6.372l6.767-0.003L52.618,38.793z
		 M32.305,14.159l5.069-0.002l-0.001-2.15l5.583-0.002l0.002,2.15l5.069-0.002l0,2.762l-5.069,0.002l0.001,2.185l4.219-0.001
		l0.001,2.7l-14.081,0.006l-0.001-2.7l4.278-0.001l-0.001-2.186l-5.068,0.002L32.305,14.159z M52.819,11.999l6.128-0.002
		l-5.307,7.981l-6.07,0.003L52.819,11.999z M39.778,34.582l-5.158,0.001l-1.034-3.306l5.251-0.003L39.778,34.582z M33.223,30.428
		L33.221,22.9l14.048-0.005l0.002,5.583l5.611-7.861l6.343-0.003l-6.035,8.438l-5.918,0.002l0.001,1.369L33.223,30.428z
		 M65.415,27.78c1.394-3.686,2.01-7.699,1.682-11.661c-0.238-2.852-2.519-5.894-4.888-7.459c-1.566-1.035-3.052-2.227-4.782-3.013
		c-0.997-0.452-1.968-0.731-2.992-1.039c-0.861-0.261-1.691-0.654-2.626-0.77c-4.897-0.603-8.672,2.255-13.155,3.496
		c-2.232,0.62-4.141,1.011-6.104,2.255c-1.697,1.072-3.712,1.797-5.277,3.084c-2.808,2.303-2.202,6.97-2.201,10.24
		c0.002,4.444-0.04,8.593,1.287,12.844c0.438,1.395,1.462,3.067,2.714,3.833c0.14,0.086,1.215,0.413,1.395,0.479
		c0.654,0.239,1.246,0.283,1.905,0.521c0.818,0.296,1.574,0.744,2.288,1.195l-0.814-0.553c0.915,0,1.846-0.052,2.758-0.001
		c0.946,0.05,1.473,0.471,2.404,0.553c2.053,0.178,2.525,1.468,3.352,3.13c0.876,1.765,1.7,3.108,3.41,4.02
		c1.08,0.576,1.637,1.129,2.51,1.939c0.803,0.744,1.59,0.817,2.712,0.813c2.446-0.009,4.597-0.415,6.018-2.621
		c0.895-1.395,1.745-2.66,2.367-4.169c0.428-1.041,0.615-2.112,0.965-3.188c0.381-1.18,0.68-2.424,1.152-3.534
		c0.544-1.298,0.851-2.739,1.506-4.005c0.483-0.94,0.884-1.45,1.152-2.503C64.496,30.336,64.94,29.039,65.415,27.78"/>
	<path fill="#E60012" d="M56.82,60.077c0.104-2.127,1.779-3.772,3.735-3.676c1.636,0.081,2.953,1.354,3.281,3.01
		c0.498-1.601,1.928-2.72,3.556-2.642c1.956,0.095,3.456,1.899,3.353,4.027c-0.073,1.448-0.876,2.677-2.001,3.28
		c-0.923,0.627-1.477,0.679-2.995,1.771c-1.951,1.394-2.34,2.406-2.34,2.406c-0.27-0.656-1.333-2.242-2.979-3.264
		c-1.64-1.022-2.572-1.974-2.572-1.974l0.012-0.003C57.172,62.274,56.763,61.223,56.82,60.077"/>
	<path d="M168.86,64.703c0.081,0.134,0.121,0.394,0.121,0.78c0,0.95-0.284,1.426-0.849,1.426c-0.269,0-0.483-0.104-0.647-0.312
		c-0.163-0.206-0.246-0.479-0.246-0.818c0-0.351,0.118-0.654,0.347-0.909c0.229-0.253,0.498-0.377,0.811-0.377
		C168.621,64.5,168.778,64.571,168.86,64.703 M165.095,59.402c-0.469,0.253-0.838,0.55-1.11,0.89
		c-0.271,0.335-0.41,0.674-0.41,1.009c0.001,0.331,0.116,0.596,0.334,0.803c0.218,0.202,0.502,0.303,0.85,0.303
		c0.686,0,1.343-0.444,1.974-1.336c0.245-0.341,0.451-0.569,0.618-0.699c0.165-0.125,0.355-0.19,0.569-0.19
		c0.352,0,0.608,0.167,0.766,0.502c0.154,0.336,0.232,0.873,0.233,1.617c0,0.296-0.055,0.482-0.159,0.563
		c-0.105,0.082-0.366,0.122-0.775,0.122c-1.847,0.009-3.233,0.453-4.161,1.342c-0.596,0.563-0.892,1.209-0.891,1.937
		c0,0.46,0.108,0.896,0.331,1.313c0.219,0.42,0.514,0.759,0.893,1.017c0.573,0.394,1.321,0.591,2.249,0.591
		c0.9,0,1.702-0.257,2.407-0.772c0.232-0.175,0.421-0.261,0.564-0.261c0.124,0,0.266,0.09,0.412,0.272
		c0.435,0.507,1.022,0.759,1.762,0.759c0.581,0,1.139-0.156,1.667-0.463c0.433-0.246,0.783-0.555,1.057-0.917
		c0.271-0.367,0.409-0.718,0.409-1.058c0-0.26-0.114-0.407-0.341-0.442c-0.225-0.036-0.378-0.074-0.447-0.113
		c-0.07-0.043-0.145-0.141-0.223-0.296c-0.155-0.323-0.234-1.028-0.234-2.119l0.023-1.57c0-0.743-0.095-1.328-0.274-1.757
		c-0.179-0.425-0.494-0.802-0.95-1.129c-0.854-0.62-1.898-0.931-3.129-0.931C167.712,58.389,166.376,58.728,165.095,59.402
		 M155.094,68.68c0.307,0.319,0.589,0.479,0.846,0.479c0.593-0.001,1.277-0.745,2.055-2.236l2.652-5.102
		c0.241-0.472,0.448-0.799,0.615-0.982c0.171-0.184,0.386-0.324,0.646-0.421c0.461-0.164,0.709-0.262,0.744-0.297
		c0.2-0.151,0.297-0.344,0.297-0.568c0-0.227-0.083-0.424-0.254-0.596s-0.39-0.285-0.659-0.344c-0.467-0.089-1-0.135-1.601-0.135
		c-0.893,0-1.569,0.102-2.038,0.309c-0.334,0.141-0.499,0.394-0.499,0.757c0,0.232,0.079,0.446,0.243,0.643
		c0.226,0.283,0.338,0.49,0.338,0.623c0,0.167-0.139,0.509-0.42,1.021c-0.389,0.682-0.712,1.024-0.965,1.024
		c-0.233,0-0.495-0.268-0.775-0.802c-0.329-0.612-0.488-1.009-0.488-1.2c0-0.133,0.035-0.241,0.113-0.327
		c0.248-0.253,0.401-0.429,0.455-0.527c0.059-0.101,0.086-0.229,0.086-0.389c0-0.401-0.237-0.692-0.71-0.871
		c-0.476-0.18-1.246-0.269-2.313-0.269c-0.927,0-1.734,0.055-2.42,0.161c-1.134,0.168-1.698,0.526-1.698,1.075
		c0,0.233,0.122,0.433,0.363,0.6c0.394,0.28,0.646,0.487,0.752,0.616c0.104,0.132,0.159,0.303,0.159,0.521
		c0.001,0.218-0.119,0.502-0.361,0.857c-0.237,0.35-0.437,0.526-0.592,0.526c-0.27,0-0.588-0.347-0.956-1.045
		c-0.335-0.61-0.498-0.993-0.498-1.148c0-0.07,0.019-0.137,0.062-0.198c0.219-0.32,0.327-0.554,0.327-0.71
		c-0.001-0.833-1.126-1.254-3.386-1.252c-1.005,0-1.929,0.105-2.778,0.32c-0.845,0.219-1.266,0.597-1.266,1.138
		c0,0.175,0.055,0.335,0.157,0.479c0.101,0.145,0.229,0.242,0.386,0.289c0.378,0.105,0.634,0.214,0.775,0.326
		c0.296,0.261,0.713,0.814,1.243,1.667l3.186,5.258c0.257,0.429,0.491,0.733,0.713,0.911c0.218,0.18,0.46,0.269,0.722,0.269
		c0.424,0,0.807-0.292,1.145-0.876l1.771-3.035c0.27-0.464,0.529-0.698,0.786-0.698c0.117,0,0.214,0.038,0.292,0.117
		c0.074,0.077,0.238,0.312,0.492,0.704l1.096,1.741C154.4,67.826,154.786,68.36,155.094,68.68 M135.5,64.717
		c0.08,0.133,0.12,0.395,0.12,0.779c0,0.951-0.284,1.428-0.848,1.428c-0.271,0-0.484-0.106-0.647-0.313
		c-0.164-0.207-0.246-0.479-0.246-0.818c0-0.351,0.116-0.654,0.348-0.907c0.229-0.253,0.496-0.378,0.809-0.378
		C135.261,64.515,135.417,64.586,135.5,64.717 M131.734,59.416c-0.468,0.254-0.838,0.551-1.111,0.889
		c-0.271,0.335-0.405,0.675-0.405,1.01c0,0.331,0.109,0.595,0.328,0.802c0.219,0.203,0.503,0.305,0.851,0.305
		c0.685-0.001,1.344-0.444,1.974-1.337c0.245-0.341,0.451-0.57,0.619-0.698c0.167-0.125,0.354-0.191,0.569-0.191
		c0.354,0,0.606,0.167,0.764,0.503c0.156,0.334,0.233,0.872,0.233,1.616c0.001,0.297-0.053,0.483-0.158,0.565
		c-0.105,0.081-0.366,0.12-0.776,0.12c-1.846,0.009-3.232,0.453-4.159,1.343c-0.593,0.561-0.892,1.208-0.892,1.937
		c0,0.459,0.109,0.897,0.331,1.313c0.218,0.421,0.515,0.761,0.893,1.018c0.573,0.393,1.321,0.591,2.249,0.591
		c0.899,0,1.701-0.258,2.411-0.772c0.23-0.177,0.421-0.262,0.56-0.262c0.13,0,0.266,0.089,0.414,0.272
		c0.433,0.507,1.021,0.76,1.762,0.759c0.581,0,1.138-0.156,1.668-0.464c0.431-0.246,0.781-0.554,1.055-0.916
		c0.271-0.366,0.409-0.717,0.408-1.056c0-0.262-0.113-0.409-0.338-0.444c-0.227-0.035-0.375-0.073-0.449-0.113
		c-0.07-0.043-0.145-0.139-0.223-0.295c-0.155-0.324-0.233-1.028-0.233-2.12l0.021-1.57c0-0.744-0.094-1.328-0.272-1.756
		c-0.179-0.426-0.495-0.804-0.952-1.13c-0.853-0.619-1.898-0.931-3.128-0.931C134.351,58.401,133.016,58.741,131.734,59.416
		 M127.424,60.342c-0.179-0.448-0.486-0.833-0.935-1.164c-0.636-0.464-1.4-0.697-2.291-0.697c-1.161,0.001-2.046,0.438-2.652,1.311
		c-0.191,0.265-0.374,0.401-0.542,0.401c-0.284,0-0.426-0.172-0.426-0.506c0-0.043,0.005-0.093,0.013-0.148
		c0.005-0.155,0.008-0.241,0.008-0.265c0-0.211-0.071-0.394-0.218-0.546c-0.145-0.155-0.324-0.234-0.534-0.233
		c-0.234,0-0.666,0.082-1.294,0.249c-0.631,0.164-1.285,0.368-1.963,0.605c-0.771,0.277-1.282,0.504-1.532,0.683
		c-0.244,0.18-0.368,0.409-0.368,0.689c0,0.272,0.151,0.507,0.456,0.697c0.354,0.215,0.569,0.401,0.643,0.555
		c0.074,0.146,0.112,0.466,0.112,0.949c0.001,0.881-0.025,1.723-0.076,2.521c-0.038,0.675-0.085,1.099-0.136,1.27
		c-0.051,0.173-0.167,0.328-0.35,0.462c-0.227,0.158-0.37,0.283-0.429,0.374c-0.063,0.085-0.09,0.214-0.09,0.385
		c0,0.807,0.981,1.212,2.95,1.211c1.231-0.001,2.135-0.099,2.715-0.298c0.581-0.195,0.872-0.503,0.872-0.915
		c0-0.164-0.039-0.309-0.116-0.434c-0.301-0.444-0.477-0.744-0.526-0.896c-0.056-0.156-0.083-0.441-0.083-0.854v-2.089
		c0-0.794,0.089-1.344,0.268-1.644c0.175-0.303,0.499-0.456,0.974-0.456c0.494,0,0.834,0.187,1.021,0.56
		c0.226,0.464,0.339,1.183,0.339,2.151c0.003,1.671-0.138,2.657-0.422,2.949c-0.242,0.261-0.383,0.425-0.426,0.491
		c-0.042,0.066-0.063,0.173-0.063,0.313c0,0.393,0.207,0.677,0.625,0.853c0.405,0.167,1.095,0.252,2.072,0.251
		c1.434,0,2.431-0.089,2.992-0.272c0.558-0.185,0.837-0.507,0.837-0.971c0-0.206-0.056-0.362-0.159-0.476
		c-0.363-0.378-0.578-0.635-0.651-0.767c-0.077-0.136-0.121-0.343-0.137-0.623l-0.149-3.713
		C127.709,61.444,127.601,60.785,127.424,60.342 M108.222,55.051c-0.868,0.348-1.304,0.823-1.304,1.427
		c0.001,0.448,0.207,0.799,0.616,1.051c0.305,0.2,0.718,0.296,1.231,0.296c1.223-0.001,2.268-0.25,3.133-0.749
		c0.544-0.315,0.817-0.744,0.817-1.285c0-0.386-0.184-0.693-0.542-0.924c-0.363-0.23-0.85-0.343-1.466-0.342
		C109.937,54.524,109.107,54.7,108.222,55.051 M112.226,58.485c-0.494,0.001-1.196,0.109-2.099,0.32
		c-0.905,0.211-1.755,0.469-2.549,0.769c-0.572,0.22-0.857,0.551-0.857,0.99c0,0.374,0.219,0.654,0.66,0.845
		c0.351,0.156,0.549,0.378,0.592,0.662c0.016,0.105,0.04,0.479,0.071,1.114s0.047,1.072,0.047,1.302
		c0,0.726-0.045,1.271-0.136,1.632c-0.093,0.368-0.25,0.632-0.467,0.793c-0.319,0.232-0.518,0.4-0.597,0.505
		c-0.077,0.105-0.116,0.254-0.116,0.445c0,0.225,0.079,0.425,0.23,0.599c0.15,0.176,0.351,0.301,0.6,0.37
		c0.729,0.194,1.714,0.291,2.961,0.291c2.314-0.001,3.472-0.453,3.472-1.36c-0.002-0.168-0.04-0.304-0.114-0.413
		c-0.073-0.109-0.223-0.242-0.44-0.398c-0.269-0.189-0.449-0.396-0.538-0.622c-0.086-0.223-0.133-0.577-0.133-1.063l-0.002-6.126
		C112.811,58.704,112.614,58.485,112.226,58.485 M96.292,54.529c-0.892,0-2.262,0.346-4.118,1.027
		c-0.58,0.211-0.997,0.421-1.25,0.636c-0.257,0.214-0.382,0.455-0.382,0.725c0,0.4,0.289,0.639,0.869,0.717
		c0.319,0.043,0.519,0.171,0.601,0.389c0.082,0.218,0.121,0.721,0.121,1.509v2.306c0.009,2.053-0.068,3.572-0.23,4.555
		c-0.043,0.183-0.098,0.315-0.168,0.4c-0.07,0.087-0.234,0.207-0.491,0.37c-0.295,0.196-0.444,0.43-0.444,0.694
		c0,0.242,0.086,0.467,0.254,0.682c0.171,0.214,0.378,0.355,0.615,0.424c0.425,0.122,1.344,0.18,2.762,0.18
		c1.201-0.001,2.066-0.11,2.587-0.329c0.526-0.218,0.786-0.572,0.786-1.064c0-0.288-0.094-0.506-0.276-0.653
		c-0.254-0.203-0.418-0.378-0.488-0.522c-0.069-0.143-0.105-0.374-0.105-0.689c0-0.352,0.012-0.589,0.039-0.717
		c0.03-0.126,0.085-0.19,0.171-0.19c0.07,0,0.156,0.058,0.262,0.17c0.101,0.113,0.385,0.464,0.853,1.052l1.762,2.249
		c0.242,0.307,0.577,0.465,1.009,0.47l3.439-0.002c0.558-0.001,0.999-0.105,1.321-0.315c0.319-0.211,0.483-0.502,0.483-0.873
		c-0.001-0.355-0.258-0.666-0.765-0.939c-0.335-0.182-0.592-0.354-0.782-0.517c-0.188-0.159-0.445-0.44-0.78-0.841
		c-0.514-0.612-1.072-1.332-1.673-2.154c-0.596-0.826-0.896-1.289-0.896-1.387c0-0.148,0.245-0.386,0.744-0.713
		c0.494-0.328,0.896-0.519,1.208-0.573c0.345-0.066,0.553-0.11,0.614-0.141c0.305-0.124,0.457-0.347,0.457-0.663
		c0-0.218-0.075-0.42-0.224-0.611c-0.147-0.19-0.335-0.324-0.561-0.4c-0.568-0.194-1.34-0.297-2.314-0.296
		c-1.883,0-2.825,0.384-2.825,1.144c0,0.132,0.06,0.271,0.171,0.42c0.156,0.203,0.235,0.343,0.235,0.421
		c0,0.132-0.223,0.335-0.659,0.608c-0.44,0.269-0.764,0.404-0.979,0.404c-0.245,0-0.396-0.143-0.443-0.432
		c-0.023-0.124-0.032-0.545-0.032-1.254c-0.001-0.64,0.003-1.127,0.007-1.453l0.096-3.3C96.893,54.702,96.698,54.529,96.292,54.529
		 M81.824,57.657c0.355,0.245,0.667,0.583,0.936,1.013c0.437,0.692,0.795,1.533,1.073,2.517c0.276,0.985,0.413,1.901,0.413,2.754
		c0,0.65-0.163,1.18-0.493,1.577c-0.328,0.401-0.76,0.605-1.297,0.605c-0.335,0-0.663-0.104-0.981-0.308
		c-0.324-0.203-0.594-0.479-0.815-0.822c-0.495-0.806-0.905-1.732-1.232-2.776c-0.324-1.045-0.488-1.964-0.489-2.755
		c0-0.541,0.136-1.01,0.405-1.402c0.347-0.526,0.814-0.792,1.41-0.792C81.115,57.279,81.47,57.411,81.824,57.657 M78.554,54.791
		c-1.437,0.533-2.578,1.373-3.427,2.511c-0.954,1.279-1.433,2.754-1.432,4.427c0.001,1.44,0.375,2.758,1.116,3.953
		c0.764,1.234,1.824,2.162,3.177,2.772c1.118,0.502,2.288,0.755,3.514,0.755c0.931-0.001,1.862-0.148,2.79-0.441
		c1.507-0.488,2.726-1.283,3.661-2.395c1.103-1.309,1.655-2.794,1.655-4.448c-0.001-1.127-0.282-2.249-0.84-3.375
		c-0.573-1.129-1.321-2.052-2.241-2.761c-1.36-1.031-2.95-1.55-4.766-1.549C80.584,54.24,79.517,54.424,78.554,54.791"/>
	<path d="M46.41,54.595c-0.744,0.139-1.262,0.299-1.554,0.479c-0.296,0.18-0.44,0.421-0.44,0.721c0,0.197,0.046,0.361,0.148,0.486
		c0.097,0.125,0.292,0.284,0.584,0.476c0.374,0.229,0.612,0.491,0.709,0.778c0.187,0.507,0.277,1.659,0.278,3.456
		c0,2.603-0.065,4.301-0.201,5.104c-0.063,0.366-0.268,0.655-0.614,0.865c-0.453,0.273-0.679,0.569-0.679,0.885
		c0,0.874,1.154,1.305,3.46,1.304c1.352,0,2.494-0.11,3.429-0.337c0.864-0.211,1.292-0.596,1.292-1.16
		c0-0.402-0.233-0.706-0.698-0.917c-0.257-0.124-0.436-0.245-0.537-0.353c-0.101-0.109-0.18-0.266-0.23-0.469
		c-0.133-0.639-0.199-2.303-0.201-4.986c0-1.589,0.049-2.657,0.15-3.202c0.101-0.55,0.315-0.904,0.643-1.069
		c0.389-0.193,0.631-0.346,0.728-0.447c0.093-0.102,0.14-0.253,0.14-0.456c-0.001-0.619-0.479-1.024-1.442-1.214
		c-0.717-0.142-1.477-0.21-2.283-0.209C48.19,54.329,47.294,54.418,46.41,54.595"/>
</g>
</svg>
