<?xml version="1.0" encoding="utf-8"?>
<!-- Generator: Adobe Illustrator 16.0.0, SVG Export Plug-In . SVG Version: 6.00 Build 0)  -->
<!DOCTYPE svg PUBLIC "-//W3C//DTD SVG 1.1//EN" "http://www.w3.org/Graphics/SVG/1.1/DTD/svg11.dtd">
<svg version="1.1" xmlns="http://www.w3.org/2000/svg" xmlns:xlink="http://www.w3.org/1999/xlink" x="0px" y="0px" width="306.5px"
	 height="80px" viewBox="0 0 306.5 80" enable-background="new 0 0 306.5 80" xml:space="preserve">
<g id="圖層_2">
</g>
<g id="圖層_1">
	<path fill="#FFFFFF" d="M202.237,69.448c-0.852,0-1.67-0.359-2.246-0.986l-0.287-0.31c-0.219-0.237-0.516-0.367-0.836-0.367
		c-0.321,0-0.617,0.13-0.834,0.366l-0.287,0.311c-0.577,0.626-1.396,0.985-2.247,0.985c-0.853,0-1.671-0.359-2.248-0.986
		l-0.285-0.31c-0.218-0.236-0.516-0.366-0.837-0.366c-0.32,0-0.617,0.13-0.834,0.366l-0.285,0.31
		c-0.576,0.626-1.396,0.986-2.248,0.986s-1.67-0.359-2.247-0.986l-0.284-0.309c-0.219-0.236-0.516-0.366-0.837-0.366
		s-0.618,0.13-0.836,0.367l-0.284,0.309c-0.576,0.627-1.396,0.986-2.248,0.986c-0.563,0-1.119-0.16-1.605-0.461l-0.101-0.062
		c0,0,0.01-0.208,0.009-0.255c-0.01-0.186-0.042-0.377-0.098-0.566l-0.215-0.731l0.546,0.531c0.396,0.384,0.915,0.596,1.464,0.596
		c0.596,0,1.146-0.241,1.551-0.68l0.284-0.308c0.394-0.428,0.952-0.673,1.533-0.673s1.14,0.246,1.534,0.673l0.285,0.309
		c0.403,0.438,0.953,0.68,1.549,0.68s1.146-0.241,1.551-0.68l0.283-0.308c0.393-0.428,0.952-0.673,1.533-0.674
		c0.581,0,1.141,0.246,1.535,0.673l0.285,0.31c0.403,0.438,0.954,0.679,1.55,0.68c0.597,0,1.146-0.241,1.549-0.68l0.286-0.31
		c0.395-0.427,0.953-0.673,1.533-0.673c0.582,0,1.141,0.246,1.533,0.673l0.287,0.31c0.404,0.438,0.953,0.68,1.549,0.68
		s1.146-0.241,1.551-0.679l0.152-0.166l0.342,0.183c-0.035,0.146-0.055,0.295-0.061,0.445c-0.031,0.153-0.047,0.268-0.053,0.385
		l-0.004,0.093l-0.074,0.057C203.56,69.224,202.901,69.448,202.237,69.448z"/>
	<g>
		<path fill="#FFFFFF" d="M143.245,47.624c-2.333,0.515-4.772,1.076-6.579,1.489l-0.264-1.228l0.912-0.172l0.242-5.987l1.076,0.044
			l-0.232,5.728l1.367-0.275l0.285-7.029l-2.447-0.099l0.213-5.276l5.641,0.229l-0.214,5.276l-2.03-0.082l-0.097,2.395l2.118,0.086
			l-0.047,1.146l-2.117-0.086l-0.129,3.176c0.719-0.145,1.456-0.306,2.209-0.467L143.245,47.624z M138.778,39.013l3.332,0.135
			l0.123-3.021l-3.333-0.135L138.778,39.013z M152.394,44.483c-0.896,0.677-2.091,1.411-3.068,1.927
			c0.766,1.266,1.802,2.28,3.133,2.908c-0.305,0.231-0.707,0.719-0.895,1.059c-2.551-1.39-3.989-4.107-4.683-7.56l-1.666-0.067
			l-0.23,5.692l3.102-0.622c-0.015,0.382-0.019,0.903,0.022,1.183c-3.597,0.828-4.142,0.98-4.481,1.192
			c-0.092-0.282-0.349-0.813-0.546-1.083c0.283-0.127,0.662-0.478,0.691-1.188l0.519-12.809l7.497,0.304l-0.307,7.584l-3.523-0.143
			c0.206,0.93,0.483,1.811,0.869,2.608c0.96-0.552,2.069-1.308,2.789-1.921L152.394,44.483z M145.262,41.604l5.084,0.207
			l0.087-2.152l-5.085-0.206L145.262,41.604z M145.476,36.312l-0.083,2.064l5.085,0.206l0.083-2.065L145.476,36.312z"/>
		<path fill="#FFFFFF" d="M159.666,36.554l-3.462,0.292l-0.095-1.125l3.462-0.292l-0.102-1.211l1.264-0.106l0.102,1.212l2.389-0.202
			l0.095,1.126l-2.389,0.201l0.111,1.315l-1.264,0.106L159.666,36.554z M171.077,37.704c-0.906,1.034-1.994,1.998-3.244,2.888
			l3.947-0.332l0.096,1.143l-6.024,0.507c-0.946,0.567-1.947,1.104-2.969,1.592l7.496-0.63l0.529,6.283l-1.281,0.108l-0.044-0.52
			l-7.686,0.646l0.043,0.52l-1.263,0.105l-0.449-5.332c-0.996,0.397-2.011,0.763-2.993,1.106c-0.162-0.265-0.517-0.759-0.746-1
			c2.33-0.685,4.659-1.596,6.767-2.661l-6.596,0.555l-0.096-1.143l5.834-0.491l-0.131-1.558l-4.397,0.37l-0.092-1.091l4.397-0.37
			l-0.106-1.264l1.263-0.106l0.106,1.264l4.172-0.351l0.091,1.09l-4.172,0.352l0.131,1.558l2.008-0.169
			c1.722-1.086,3.259-2.296,4.386-3.611L171.077,37.704z M169.185,44.018l-7.686,0.646l0.117,1.385l7.686-0.646L169.185,44.018z
			 M169.497,47.722l-0.12-1.42l-7.686,0.646l0.119,1.42L169.497,47.722z M171.291,34.443l0.094,1.125l-3.497,0.295L168,37.195
			l-1.264,0.106l-0.112-1.333l-2.544,0.215l-0.095-1.126l2.544-0.214l-0.102-1.211l1.263-0.107l0.103,1.212L171.291,34.443z"/>
		<path fill="#FFFFFF" d="M179.006,34.604l-3.903,0.677l-0.181-1.044l3.903-0.678l-0.252-1.454l1.215-0.211l0.253,1.455l3.902-0.677
			l0.181,1.044l-3.902,0.677l0.279,1.609l3.458-0.6l0.18,1.044l-8.027,1.392l-0.182-1.044l3.355-0.582L179.006,34.604z
			 M184.687,41.642l-7.378,1.278l-0.667-3.852l7.378-1.278L184.687,41.642z M186.239,45.11c-3.149,1.057-6.5,2.167-8.783,2.933
			l-0.399-1.183c1.36-0.395,3.178-0.992,5.165-1.636c0.197-0.898,0.394-2.202,0.437-3.074l1.294,0.041
			c-0.166,0.875-0.351,1.841-0.512,2.646l2.551-0.849L186.239,45.11z M182.99,38.974l-5.033,0.872l0.33,1.9l5.033-0.873
			L182.99,38.974z M179.546,45.759c-0.228-0.701-0.763-1.755-1.316-2.505l0.997-0.455c0.568,0.73,1.131,1.743,1.376,2.441
			L179.546,45.759z M189.424,31.035c-0.872,1.684-2.362,3.459-3.763,4.636c-0.268-0.218-0.726-0.526-1.076-0.713
			c1.335-1.042,2.841-2.731,3.571-4.215L189.424,31.035z M190.673,35.596c-0.973,1.809-2.606,3.679-4.149,4.951
			c-0.27-0.235-0.712-0.547-1.079-0.729c1.481-1.121,3.16-2.929,3.961-4.513L190.673,35.596z M191.875,40.395
			c-0.97,2.442-2.894,4.769-5.085,6.365c-0.275-0.27-0.727-0.633-1.083-0.853c2.119-1.407,4.053-3.576,4.904-5.787L191.875,40.395z"
			/>
		<path fill="#FFFFFF" d="M203.962,34.091c1.63,3.664,4.221,6.538,7.705,7.532c-0.278,0.328-0.65,0.911-0.833,1.316
			c-3.489-1.203-6.021-4.016-7.82-7.782c-0.46,3.406-1.957,6.928-5.938,9.311c-0.229-0.324-0.692-0.728-1.083-0.945
			c4.074-2.341,5.432-5.847,5.778-9.188l-6.371,0.708l-0.146-1.313l6.578-0.73c0.057-1.841-0.151-3.565-0.286-4.933l1.381-0.153
			c0.136,1.384,0.309,3.095,0.268,4.935l7.13-0.792l0.146,1.312L203.962,34.091z"/>
		<path fill="#FFFFFF" d="M222.321,35.498c-1.189,1.86-2.532,3.649-3.854,5.057l8.589-0.494c-0.716-1.053-1.535-2.141-2.305-3.054
			l1.136-0.507c1.541,1.724,3.195,4.038,3.974,5.56l-1.243,0.662c-0.219-0.455-0.491-0.962-0.831-1.523
			c-9.407,0.623-10.363,0.68-11.044,0.932c-0.066-0.278-0.249-0.941-0.418-1.273c0.366-0.082,0.771-0.494,1.283-1.095
			c0.493-0.498,1.959-2.337,3.097-4.285l-5.472-0.072l0.017-1.286l7.035,0.093l0.043-3.282l-5.68-0.075l0.017-1.268l5.68,0.074
			l0.036-2.727l1.337,0.018l-0.036,2.728l5.837,0.077l-0.017,1.268l-5.836-0.077l-0.043,3.283l7.122,0.094l-0.017,1.286
			L222.321,35.498z"/>
		<path fill="#FFFFFF" d="M241.477,34.591c0,0-0.055,0.396-0.099,0.583c-0.919,5.605-1.317,7.461-1.811,7.988
			c-0.308,0.325-0.637,0.42-1.054,0.397c-0.386-0.002-0.988-0.085-1.603-0.205c0.031-0.347-0.022-0.845-0.169-1.181
			c0.612,0.137,1.143,0.229,1.401,0.265c0.207,0.028,0.349,0.014,0.515-0.174c0.311-0.343,0.697-1.989,1.47-6.669l-1.944-0.27
			c-0.439,2.656-1.282,5.572-3.584,7.883c-0.155-0.268-0.542-0.637-0.812-0.85c2.329-2.376,2.988-5.476,3.334-7.971l0.363-2.613
			l-1.841-0.256l0.167-1.205l6.639,0.923l-0.167,1.204l-3.629-0.504l-0.308,2.219L241.477,34.591z M239.114,30.651
			c-0.084-0.661-0.36-1.698-0.602-2.486l1.136-0.228c0.293,0.795,0.574,1.798,0.658,2.458L239.114,30.651z M250.427,37.308
			c-0.899,0.664-2.048,1.363-2.992,1.846c0.381,2.052,1.105,3.783,2.286,4.876c-0.324,0.183-0.784,0.593-1.021,0.91
			c-2.049-2.038-2.726-5.621-2.744-9.778c-0.535,0.065-1.085,0.112-1.618,0.16l-0.975,7.019l2.737-0.776
			c-0.031,0.346-0.016,0.874,0.031,1.161c-3.35,1.024-3.863,1.182-4.196,1.434c-0.082-0.293-0.359-0.821-0.52-1.055
			c0.269-0.173,0.671-0.538,0.781-1.329l1.029-7.413c2.266-0.159,4.859-0.518,6.348-1.013l0.907,1.038
			c-0.983,0.267-2.171,0.487-3.403,0.649c0.016,1.02,0.052,2.023,0.181,2.988c0.823-0.499,1.732-1.109,2.35-1.638L250.427,37.308z
			 M244.552,32.143c-0.618,0.914-1.325,1.71-2.022,2.314c-0.197-0.221-0.642-0.686-0.908-0.915c1.396-1.086,2.595-2.9,3.375-4.861
			l1.208,0.396c-0.291,0.696-0.626,1.351-0.975,1.969l5.934,0.824l-0.163,1.17L244.552,32.143z"/>
		<path fill="#FFFFFF" d="M261.189,36.126c-0.75,0.715-1.618,1.399-2.527,2.035l-2.376,8.823l-1.242-0.334l2.006-7.447
			c-0.814,0.482-1.614,0.914-2.366,1.233c-0.116-0.301-0.408-0.955-0.592-1.275c2.058-0.758,4.388-2.2,6.057-3.783L261.189,36.126z
			 M261.488,32.41c-1.487,1.183-3.637,2.349-5.414,3.004c-0.113-0.318-0.318-0.896-0.472-1.188c1.645-0.564,3.662-1.641,4.822-2.605
			L261.488,32.41z M270.067,41.504l-2.533-0.683l-1.866,6.928c-0.207,0.771-0.496,1.107-1.104,1.16
			c-0.619,0.03-1.559-0.223-3.203-0.665c0.04-0.35,0.013-0.914-0.077-1.316c1.183,0.354,2.29,0.652,2.613,0.722
			c0.322,0.069,0.441,0.029,0.519-0.256l1.861-6.911l-5.602-1.509l0.321-1.19l9.393,2.53L270.067,41.504z M270.819,36.777
			l-8.187-2.205l0.317-1.174l8.186,2.204L270.819,36.777z"/>
	</g>
	<path fill="#E4007F" d="M276.61,39.016c1.83-2.941,5.511-3.957,8.214-2.273c2.262,1.409,3.128,4.261,2.287,6.874
		c1.971-1.883,4.89-2.343,7.143-0.947c2.702,1.684,3.41,5.434,1.581,8.376c-1.25,2.002-3.361,3.114-5.436,3.083
		c-1.809,0.163-2.636-0.203-5.657,0.149c-3.879,0.44-5.232,1.574-5.232,1.574c0.137-1.15-0.122-4.244-1.654-6.993
		c-1.522-2.753-2.097-4.841-2.097-4.841l0.021,0.004C275.372,42.418,275.621,40.6,276.61,39.016"/>
	<path fill="#FFFFFF" stroke="#2096D5" stroke-miterlimit="10" d="M147.841,79.946c2.741-2.715,5.425-10.762,0.15-11.97
		c-1.038-3.811-4.912-2.813-4.73,0.31c-0.189,1.403-0.154-1.222-2.235-0.501c-3.24,1.406-2.728,4.294,2.461,8.902
		c2.007,1.476,1.946,3.725,2.114,4.506"/>
	<path fill="#FFFFFF" stroke="#2096D5" stroke-miterlimit="10" d="M146.371,82.413c-2.21-0.272-11.932,5.45-12.679-1.285
		c-3.127-2.185-3.527-5.545,0.739-6.281c-0.362-2.107,3.518-5.052,6.708-0.192c3.074,3.517,5.026,4.953,6.474,4.811"/>
	<path fill="#FFFFFF" stroke="#2096D5" stroke-miterlimit="10" d="M147.974,85.107c2.119-0.683,12.746,3.104,12.209-3.65
		c2.66-2.736,1.614-6.679-1.733-6.79c-0.042-2.137-4.648-4.864-6.866,0.513c-2.357,4.034-4.003,5.811-5.451,5.944"/>
	<g opacity="0.2">
		<path fill="#FFFFFF" d="M87.784,75.033c0.185,2.172-0.743,4.558-2.186,6.019c4.604,1.055,8.356-2.609,5.038-6.792
			c4.442,1.098,8.173-4.037,5.05-8.216c-0.846,1.808-2.632,3.468-4.631,4.101c1.238-1.342,3.122-2.836,3.705-4.993
			c-0.377-0.282-1.503-1.272-1.968-1.531c-0.73-0.445-2.052-1.038-2.796-1.323c-0.342,1.69-0.937,3.681-2.693,5.001
			c0.848-1.63,1.567-3.342,1.322-5.204c-1.348-0.239-3.19-0.499-4.556-0.375c0.008,1.428-0.515,3.12-1.301,4.94
			c0.224-1.713,0.719-3.429-0.058-4.804c-2,0.408-4.884,1.286-6.852,2.083c-0.014,1.869,0.476,4.879,0.882,6.725
			c1.695,0.281,3.042-1.034,4.661-1.964c-1.473,1.514-2.925,2.698-4.329,3.185c0.441,1.245,1.361,2.943,2.11,4.132
			c1.88-0.467,3.318-1.917,4.539-3.368c-0.576,2.227-2.191,3.76-3.716,4.687c0.007,0.008,0.014,0.016,0.02,0.024
			c0.949,1.128,3.202,2.662,4.227,3.239C86.13,79.232,86.975,76.773,87.784,75.033z"/>
	</g>
	<path fill="none" stroke="#2096D5" stroke-miterlimit="10" d="M90.43,71.282c0,0-0.648-1.617-12.747-8.752"/>
	<path opacity="0.3" fill="#FFFFFF" d="M126.367,72.206c-0.171,1.389,0.367,2.942,1.257,3.914c-2.979,0.566-5.299-1.875-3.068-4.479
		c-2.877,0.598-5.147-2.787-3.043-5.393c0.5,1.181,1.605,2.289,2.873,2.742c-0.761-0.891-1.934-1.895-2.256-3.292
		c0.249-0.172,0.995-0.781,1.3-0.935c0.479-0.268,1.341-0.616,1.825-0.782c0.179,1.092,0.513,2.385,1.608,3.274
		c-0.505-1.066-0.925-2.182-0.723-3.371c0.87-0.121,2.058-0.243,2.932-0.13c-0.041,0.916,0.255,2.014,0.715,3.2
		c-0.103-1.104-0.379-2.217,0.153-3.08c1.272,0.31,3.102,0.942,4.346,1.501c-0.036,1.2-0.422,3.119-0.727,4.294
		c-1.095,0.139-1.928-0.736-2.944-1.372c0.909,1.006,1.813,1.801,2.702,2.147c-0.314,0.789-0.944,1.855-1.453,2.6
		c-1.196-0.345-2.083-1.31-2.833-2.27c0.317,1.442,1.316,2.465,2.272,3.096c-0.005,0.005-0.009,0.01-0.014,0.015
		c-0.635,0.701-2.118,1.631-2.789,1.977C127.326,74.939,126.844,73.341,126.367,72.206z"/>
	<path fill="none" stroke="#2096D5" stroke-miterlimit="10" d="M114.552,91.248c0,0,1.092,8.875-0.451,15.576"/>
	<path fill="#FFFFFF" stroke="#2096D5" stroke-miterlimit="10" d="M107.411,72.06c-7.784,1.164-17.935-2.24-17.3,3.731
		c0.116,2.412-3.726,3.335-1.131,6.886c1.908,3.671,5.514-0.353,6.389,1.471c-0.14,3.268,2.624,4.002,4.429,0.698
		c2.917-3.904,7.595-8.469,10.82-7.41"/>
	<path fill="#FFFFFF" stroke="#2096D5" stroke-miterlimit="10" d="M111.252,73.96c4.653-2.115,15.88-1.651,14.894,5.45
		c4.23,3.08,1.171,7.407-2.61,5.713c-1.827-0.428,1.439,0.765-0.432,3.001c-3.266,3.352-6.602,1.357-9.864-7.237
		c-0.883-3.181-3.695-4.163-4.584-4.739"/>
	<path fill="#FFFFFF" stroke="#2096D5" stroke-miterlimit="10" d="M108.3,72.117c0.718-4.522-2.359-14.105-8.255-11.561
		c-4.045-1.2-5.629,1.861-4.905,2.97c-0.64,0.288-1.96,1.293-2.401,3.332c0.213,2.142,0.909,4.426,9.107,5.193
		c2.957,0.004,4.476,2.199,5.186,2.829"/>
	<path fill="#FFFFFF" stroke="#2096D5" stroke-miterlimit="10" d="M107.506,74.619c-0.704,2.865-12.367,12.209-4.38,16.306
		c1.234,4.902,5.208,6.979,8.126,2.043c2.439,1.438,7.913-1.977,3.395-8.217c-2.907-5.463-3.765-8.555-2.908-10.281"/>
	<path fill="#FFFFFF" stroke="#2096D5" stroke-miterlimit="10" d="M104.53,72.4c1.844-2.303,2.158-17.244,10.27-13.4
		c4.64-2.005,9.031,1.147,7.592,5.343c2.626,1.059,3.833,8.046-3.868,8.26c-6.104,1.02-9.08,2.221-9.927,3.951"/>
	<path fill="#A3D8EB" d="M116.89,78.553c-0.889-1.229-2.31-2.561-4.166-3.542c-0.243-0.128-0.224-0.421,0.027-0.375
		c1.071,0.2,2.481,0.903,3.565,1.575c0.238,0.147,0.425-0.066,0.231-0.264c-1.807-1.833-3.845-2.586-5.604-2.945
		c0.98-1.241,2.177-2.473,3.522-3.792c0.171-0.168,0.117-0.426-0.081-0.381c-0.737,0.166-1.859,0.726-2.98,2.092
		c-0.177,0.216-0.419,0.075-0.3-0.176c0.571-1.211,1.748-2.956,2.692-4.406c0.146-0.224-0.024-0.432-0.225-0.273
		c-1.191,0.939-2.465,2.413-3.369,4.307c-0.118,0.248-0.412,0.24-0.376-0.012c0.155-1.078,0.801-2.516,1.428-3.626
		c0.138-0.243-0.083-0.422-0.272-0.22c-1.5,1.603-2.206,3.343-2.561,4.919c-0.65-1.479-1.722-3.188-3.906-4.037
		c-0.205-0.08-0.342,0.169-0.169,0.306c0.788,0.625,1.67,1.512,2.063,2.328c0.092,0.19-0.147,0.332-0.305,0.182
		c-1.207-1.144-2.613-1.771-3.821-1.997c-0.203-0.039-0.292,0.211-0.117,0.328c1.13,0.76,2.524,1.655,3.291,2.39
		c0.159,0.152-0.005,0.378-0.203,0.283c-1.255-0.61-2.313-0.555-2.958-0.354c-0.172,0.054-0.154,0.291,0.029,0.351
		c1.98,0.649,3.686,1.29,5.027,2.223c-1.992-0.237-4.716-0.302-7.496,1.402c-0.235,0.145-0.104,0.397,0.162,0.311
		c1.213-0.391,2.751-0.735,3.839-0.671c0.254,0.015,0.202,0.304-0.064,0.371c-2.037,0.505-3.736,1.457-4.895,2.436
		c-0.195,0.165-0.025,0.374,0.223,0.276c1.61-0.634,3.555-1.437,4.856-1.753c0.27-0.066,0.359,0.2,0.112,0.329
		c-1.563,0.825-2.337,1.813-2.648,2.501c-0.083,0.184,0.159,0.29,0.358,0.155c1.953-1.317,3.727-2.437,5.477-3.184
		c-0.531,1.729-1.371,3.525-2.37,5.5c-0.109,0.215,0.025,0.441,0.198,0.336c0.645-0.394,1.527-1.285,2.15-2.939
		c0.098-0.261,0.373-0.206,0.341,0.07c-0.151,1.331-0.705,3.361-1.134,5.037c-0.066,0.26,0.163,0.401,0.302,0.187
		c0.826-1.271,1.559-3.076,1.807-5.161c0.033-0.271,0.313-0.359,0.36-0.109c0.199,1.071,0.049,2.641-0.188,3.893
		c-0.052,0.275,0.214,0.374,0.329,0.122c1.27-2.808,0.979-5.367,0.535-7.282c1.361,1.097,2.682,2.482,4.106,4.058
		c0.161,0.179,0.421,0.135,0.385-0.064c-0.136-0.742-0.65-1.887-1.97-3.063c-0.208-0.186-0.058-0.422,0.188-0.293
		c1.188,0.62,2.882,1.867,4.292,2.869C116.825,78.922,117.04,78.76,116.89,78.553z"/>
	<g>
		<path fill="#A3D8EB" d="M108.851,56.454c-2.127,2.347-4.249,13.065-0.709,17.226c0.611,0.864,1.731-0.101,1.088-0.901
			c-1.69-2.241-3.376-9.406-0.169-15.941"/>
		<path fill="#A3D8EB" d="M108.58,57.24c-0.583-2.051-0.056-2.87,1.036-2.648C110.772,54.925,110.534,56.128,108.58,57.24z"/>
		<path fill="#A3D8EB" d="M106.862,58.055c-1.614-0.553-1.912-1.273-1.269-1.89C106.34,55.559,107.022,56.264,106.862,58.055z"/>
		<path fill="#A3D8EB" d="M106.32,57.519c-0.063,0.529,0.999,2.019,1.256,2.146l0.302-1.011c-0.578-0.127-1.255-1.424-1.352-1.792
			L106.32,57.519z"/>
		<path fill="#A3D8EB" d="M106.065,60.302c-1.614-0.553-1.911-1.273-1.268-1.889C105.543,57.806,106.226,58.511,106.065,60.302z"/>
		<path fill="#A3D8EB" d="M105.523,59.766c-0.063,0.529,0.999,2.018,1.256,2.146l0.303-1.011c-0.578-0.126-1.255-1.424-1.352-1.792
			L105.523,59.766z"/>
		<path fill="#A3D8EB" d="M109.319,58.758c1.669,0.351,2.294-0.115,2.057-0.974C111.046,56.881,110.099,57.138,109.319,58.758z"/>
		<path fill="#A3D8EB" d="M110.06,58.575c-0.217,0.486-1.892,1.221-2.178,1.199l0.258-1.023c0.561,0.187,1.807-0.581,2.079-0.848
			L110.06,58.575z"/>
		<path fill="#A3D8EB" d="M108.852,61.096c1.669,0.352,2.294-0.114,2.057-0.973C110.579,59.219,109.631,59.475,108.852,61.096z"/>
		<path fill="#A3D8EB" d="M109.592,60.913c-0.217,0.487-1.892,1.222-2.178,1.2l0.259-1.023c0.562,0.187,1.807-0.581,2.079-0.848
			L109.592,60.913z"/>
	</g>
	<path fill="#FFFFFF" d="M26.225,72.5c-0.852,0-1.67-0.359-2.248-0.985l-0.285-0.311c-0.219-0.236-0.516-0.366-0.836-0.366
		c-0.322,0-0.619,0.13-0.837,0.367l-0.285,0.31c-0.577,0.626-1.396,0.986-2.247,0.986s-1.672-0.359-2.248-0.986l-0.284-0.309
		c-0.219-0.236-0.516-0.367-0.837-0.367c-0.322,0-0.619,0.13-0.835,0.367l-0.285,0.309c-0.577,0.627-1.396,0.986-2.248,0.986
		c-0.852,0-1.671-0.359-2.247-0.986l-0.284-0.309c-0.219-0.236-0.516-0.367-0.837-0.367s-0.618,0.13-0.835,0.367l-0.285,0.309
		c-0.577,0.627-1.396,0.986-2.248,0.986c-0.563,0-1.119-0.16-1.606-0.461l-0.099-0.061c0,0,0.008-0.212,0.006-0.254
		c-0.008-0.188-0.041-0.378-0.097-0.567l-0.216-0.732l0.547,0.532c0.396,0.384,0.915,0.595,1.464,0.595
		c0.596,0,1.146-0.241,1.551-0.68l0.284-0.308c0.393-0.428,0.952-0.673,1.533-0.673c0.581,0,1.14,0.246,1.534,0.673l0.284,0.309
		c0.404,0.438,0.955,0.68,1.55,0.68c0.596,0,1.146-0.241,1.55-0.68l0.284-0.309c0.393-0.427,0.952-0.673,1.534-0.673
		c0.581,0,1.141,0.246,1.534,0.673l0.285,0.31c0.403,0.438,0.954,0.68,1.55,0.68s1.146-0.241,1.549-0.679l0.286-0.31
		c0.394-0.427,0.952-0.673,1.534-0.673c0.581,0,1.141,0.246,1.533,0.673l0.286,0.31c0.403,0.438,0.954,0.679,1.55,0.679
		s1.146-0.241,1.551-0.679l0.672-0.734l-0.18,0.75c-0.035,0.148-0.055,0.298-0.059,0.446c-0.032,0.153-0.048,0.269-0.053,0.385
		l-0.004,0.093l-0.074,0.057C27.546,72.275,26.888,72.5,26.225,72.5z"/>
	<path fill="#FFFFFF" d="M41.977,59.448c-0.852,0-1.67-0.359-2.248-0.986l-0.285-0.31c-0.219-0.237-0.516-0.367-0.836-0.367
		c-0.322,0-0.619,0.13-0.836,0.366l-0.286,0.311c-0.577,0.626-1.396,0.985-2.247,0.985s-1.672-0.359-2.248-0.986l-0.284-0.31
		c-0.219-0.236-0.517-0.366-0.837-0.366c-0.321,0-0.619,0.13-0.836,0.366L30.75,58.46c-0.576,0.627-1.396,0.986-2.248,0.986
		c-0.852,0-1.671-0.359-2.247-0.986l-0.285-0.309c-0.218-0.236-0.516-0.366-0.836-0.366c-0.321,0-0.618,0.13-0.836,0.366
		l-0.284,0.309c-0.577,0.627-1.396,0.987-2.247,0.987c-0.564,0-1.119-0.16-1.606-0.461l-0.099-0.061c0,0,0.008-0.212,0.006-0.254
		c-0.008-0.188-0.041-0.378-0.097-0.568l-0.216-0.732l0.547,0.532c0.395,0.384,0.915,0.596,1.465,0.596
		c0.595,0,1.146-0.241,1.55-0.68l0.284-0.308c0.394-0.428,0.952-0.673,1.533-0.673c0.58,0,1.141,0.246,1.535,0.673l0.283,0.309
		c0.404,0.438,0.955,0.68,1.55,0.68c0.596,0,1.146-0.241,1.551-0.68l0.284-0.308c0.393-0.428,0.951-0.673,1.533-0.674
		c0.581,0,1.141,0.246,1.534,0.673l0.285,0.31c0.403,0.438,0.954,0.68,1.55,0.68s1.146-0.241,1.549-0.679l0.286-0.311
		c0.394-0.427,0.952-0.672,1.534-0.672c0.58,0,1.141,0.245,1.533,0.672l0.286,0.311c0.403,0.438,0.954,0.679,1.55,0.679
		s1.146-0.241,1.551-0.679l0.672-0.735l-0.18,0.751c-0.035,0.148-0.055,0.298-0.059,0.446c-0.032,0.153-0.048,0.268-0.053,0.385
		l-0.004,0.093l-0.074,0.057C43.297,59.223,42.639,59.448,41.977,59.448z"/>
	<g>
		<path fill="#78CAE0" d="M53.68,90.225c0,0,1.459,0.792,3.443,0.87c1.316,0.052,2.025,0.054,3.53-0.963
			c0.122-46.901,7.7-54.223,7.7-54.223s1.313,0.113-0.208-0.507c-0.356-0.145-0.796-0.325-1.339-0.546
			C52.847,50.824,53.68,90.225,53.68,90.225z"/>
	</g>
	<g>
		<path fill="#FFFFFF" stroke="#2096D5" stroke-miterlimit="10" d="M51.033,88.46c0,0,1.459,0.792,3.443,0.87
			c1.316,0.052,2.025,0.055,3.529-0.963c0.122-46.901,7.701-54.223,7.701-54.223s1.313,0.113-0.208-0.507
			c-0.357-0.145-0.797-0.324-1.34-0.545C50.201,49.061,51.033,88.46,51.033,88.46z"/>
	</g>
	<g>
		<path fill="#FFFFFF" stroke="#2096D5" stroke-miterlimit="10" d="M62.572,34.117c0,0,15.046-10.875,22.888,5.848
			c7.844,16.723-2.307,4.025-2.307,4.025s-1.478,6.094-2.755,3.708c-1.279-2.384-2.091-3.901-2.091-3.901s-0.759,4.312-1.571,2.796
			c-0.813-1.519-2.076-4.918-2.076-4.918s-0.619,3.014-1.184,2.479S70.789,34.913,62.572,34.117z"/>
	</g>
	<g>
		<path fill="#FFFFFF" stroke="#2096D5" stroke-miterlimit="10" d="M63.921,35.324c0,0-8.084-16.712-22.923-5.712
			c-14.838,11,0.122,4.638,0.122,4.638s-1.589,6.066,0.666,4.572c2.256-1.493,3.691-2.443,3.691-2.443s-1.377,4.156,0.058,3.206
			s4.161-3.344,4.161-3.344s-0.885,2.945-0.135,2.743C50.313,38.783,56.311,32.127,63.921,35.324z"/>
	</g>
	<g>
		<path fill="#FFFFFF" stroke="#2096D5" stroke-miterlimit="10" d="M63.956,35.55c0,0,6.101-17.533-12.169-20.248
			c-18.271-2.714-3.194,3.365-3.194,3.365s-5.413,3.165-2.762,3.705c2.651,0.539,4.338,0.882,4.338,0.882s-3.914,1.964-2.227,2.308
			c1.687,0.343,5.306,0.578,5.306,0.578s-2.708,1.456-2.035,1.845C51.887,28.374,60.836,27.909,63.956,35.55z"/>
	</g>
	<g>
		<path fill="#FFFFFF" stroke="#2096D5" stroke-miterlimit="10" d="M64.028,34.96c0,0-0.542-18.557,17.698-15.646
			c18.241,2.909,2.034,4.17,2.034,4.17s4.208,4.647,1.519,4.364c-2.69-0.283-4.403-0.463-4.403-0.463s3.142,3.051,1.43,2.871
			s-5.234-1.045-5.234-1.045s2.146,2.204,1.386,2.372C77.697,31.748,69.303,28.612,64.028,34.96z"/>
	</g>
	<g>
		<path fill="#FFFFFF" stroke="#2096D5" stroke-miterlimit="10" d="M63.884,35.334c0,0,3.9-5.786,4.618-10.161
			c0.718-4.376-1.383-10.732-3.982-14.501c-2.6-3.77-1.425,3.421-1.425,3.421s-2.661-1.029-2.591-0.168
			c0.069,0.862,2.113,3.21,2.113,3.21s-3.153-0.339-2.309,0.422C61.151,18.32,65.52,29.354,63.884,35.334z"/>
	</g>
	<circle fill="#2096D5" cx="68.359" cy="31.031" r="3.74"/>
	<circle fill="#2096D5" cx="62.06" cy="34.28" r="3.988"/>
	<path fill="#FFFFFF" stroke="#2096D5" stroke-miterlimit="10" d="M56.759,51.058c0,0,2.512,0.838,3.852,0.67"/>
	<path fill="#FFFFFF" stroke="#2096D5" stroke-miterlimit="10" d="M54.917,59.22c0,0,1.507,1.34,4.354,1.004"/>
	<path fill="#FFFFFF" stroke="#2096D5" stroke-miterlimit="10" d="M54.079,71.111c0,0,1.507,1.339,4.354,1.005"/>
</g>
</svg>
